<?xml version="1.0" encoding="iso-8859-1"?>
<!-- Generator: Adobe Illustrator 22.0.1, SVG Export Plug-In . SVG Version: 6.00 Build 0)  -->
<svg version="1.1" xmlns="http://www.w3.org/2000/svg" xmlns:xlink="http://www.w3.org/1999/xlink" x="0px" y="0px"
	 viewBox="0 0 512 511.666" style="enable-background:new 0 0 512 511.666;" xml:space="preserve">
<g id="branding">
	<path d="M500.869,133.232h-44.522c-6.144,0-11.131,4.987-11.131,11.131v11.103l-7.702-0.018
		c-51.487-0.164-101.121-0.348-145.533,13.193l83.181-83.181c0.987-0.987,1.738-2.119,2.276-3.323
		c6.773,4.165,14.737,6.573,23.257,6.573c24.554,0,44.522-19.968,44.522-44.522S425.249-0.334,400.695-0.334
		c-24.554,0-44.522,19.968-44.522,44.522c0,8.519,2.408,16.484,6.573,23.257c-1.204,0.538-2.336,1.289-3.323,2.276L228.373,200.772
		c0.388,0.104,0.772,0.219,1.152,0.343c-4.66,3.742-9.216,7.794-13.665,12.17l-2.199,2.199c-4.391,4.465-8.455,9.037-12.208,13.715
		c-0.125-0.383-0.241-0.769-0.346-1.16L70.033,359.112c-0.979,0.979-1.726,2.101-2.263,3.295
		c-6.771-4.162-14.732-6.567-23.248-6.567C19.968,355.84,0,375.808,0,400.362s19.968,44.522,44.522,44.522
		c24.554,0,44.522-19.968,44.522-44.522c0-8.516-2.406-16.478-6.568-23.249c1.196-0.537,2.319-1.284,3.296-2.262l83.223-83.223
		c-13.575,44.46-13.405,94.133-13.214,145.553l0.018,7.703h-11.104c-6.144,0-11.131,4.987-11.131,11.131v44.521
		c0,6.144,4.987,11.131,11.131,11.131h44.522c6.144,0,11.131-4.987,11.131-11.131v-44.522c0-6.144-4.987-11.13-11.131-11.13h-11.156
		l-0.018-7.792c-0.286-75.594-0.505-141.74,40.021-193.023c-0.411-0.085-0.816-0.184-1.218-0.292l12.546-12.546
		c0.359-0.366,0.711-0.734,1.075-1.098c0.364-0.364,0.731-0.715,1.097-1.074l12.548-12.548c0.108,0.402,0.207,0.808,0.292,1.219
		c51.283-40.52,117.429-40.266,193.023-40.022l7.791,0.018v11.157c0,6.144,4.987,11.131,11.131,11.131h44.522
		c6.144,0,11.131-4.987,11.131-11.131v-44.522C512,138.218,507.013,133.232,500.869,133.232z M400.695,21.928
		c12.265,0,22.26,9.995,22.26,22.26c0,12.265-9.995,22.26-22.26,22.26c-12.266,0-22.26-9.995-22.26-22.26
		C378.435,31.922,388.43,21.928,400.695,21.928z M44.522,422.622c-12.266,0-22.26-9.995-22.26-22.26s9.995-22.26,22.26-22.26
		c12.265,0,22.26,9.994,22.26,22.26C66.783,412.628,56.787,422.622,44.522,422.622z M178.087,489.405h-22.26v-22.26h22.26V489.405z
		 M489.738,177.754h-22.26v-22.26h22.26V177.754z M231.563,229.059c4.169-4.092,8.45-7.86,12.84-11.329
		c0.304,1.467,0.466,2.987,0.466,4.544c0,12.294-9.966,22.26-22.26,22.26c-1.558,0-3.078-0.161-4.545-0.466
		c3.469-4.389,7.237-8.67,11.328-12.838L231.563,229.059z M213.66,215.485l-12.554,12.554c-0.492-1.839-0.758-3.771-0.758-5.765
		c0-12.294,9.966-22.26,22.26-22.26c1.994,0,3.926,0.266,5.765,0.758l-12.514,12.514c-0.377,0.371-0.756,0.733-1.131,1.109
		C214.366,214.756,214.017,215.122,213.66,215.485z"/>
</g>
<g id="Layer_1">
</g>
</svg>
