<?xml version="1.0" encoding="iso-8859-1"?>
<!-- Generator: Adobe Illustrator 22.0.1, SVG Export Plug-In . SVG Version: 6.00 Build 0)  -->
<svg version="1.1" xmlns="http://www.w3.org/2000/svg" xmlns:xlink="http://www.w3.org/1999/xlink" x="0px" y="0px"
	 viewBox="0 0 498 498.001" style="enable-background:new 0 0 498 498.001;" xml:space="preserve">
<g id="connection">
	<path d="M460,0c-9.498,0-18.596,3.539-25.619,9.967c-6.981,6.389-11.315,15.057-12.203,24.408l-0.469,4.938l-4.815,1.194
		L317.87,65.063l-5.867,1.455l-2.294-5.592c-7.297-17.786-19.578-32.953-35.514-43.861C257.883,5.901,238.797,0,219,0
		c-18.483,0-36.496,5.196-52.091,15.026c-15.183,9.571-27.464,23.087-35.514,39.088l-2.709,5.385l-5.728-1.881L80.795,43.773
		l-4.719-1.55l-0.096-4.966c-0.193-9.975-4.234-19.335-11.379-26.356C57.447,3.871,48,0,38,0C17.047,0,0,17.047,0,38
		s17.047,38,38,38c11.778,0,22.708-5.362,29.988-14.711l3.027-3.887l4.68,1.537l42.134,13.836l5.779,1.898l-1.073,5.987
		C121.517,86.348,121,92.182,121,98c0,21.257,6.759,41.541,19.546,58.66l3.626,4.854l-4.284,4.284L93.34,212.348l-3.506,3.506
		l-4.471-2.144C80.23,211.248,74.725,210,69,210c-20.953,0-38,17.047-38,38s17.047,38,38,38s38-17.047,38-38
		c0-5.723-1.248-11.228-3.71-16.363l-2.143-4.47l3.506-3.506l46.524-46.524l4.292-4.292l4.857,3.641
		c5.183,3.886,10.794,7.272,16.677,10.064l3.999,1.898v4.426v77.917v3.364l-2.627,2.102l-50.432,40.347
		c-13.881,11.104-18.201,30.712-10.274,46.625l55.86,113.716l0.021,0.043C180.032,489.951,193.056,498,207.542,498l169.551,0.001
		c16.948,0,31.599-10.943,36.455-27.231C422.306,441.393,437,381.182,437,308c0-20.953-17.047-38-38-38
		c-4.831,0-9.539,0.898-13.993,2.669l-7.277,2.894l-2.062-7.555C371.167,251.517,356.089,240,339,240
		c-4.831,0-9.539,0.898-13.993,2.669l-7.277,2.894l-2.062-7.555C311.167,221.517,296.089,210,279,210
		c-4.326,0-8.586,0.733-12.661,2.177L257,215.489v-9.909v-12.707v-4.426l3.998-1.898c15.399-7.31,28.698-18.606,38.459-32.667
		l3.458-4.981l5.423,2.712l49.147,24.573l4.423,2.211l-0.606,4.908C361.099,184.952,361,186.488,361,188c0,20.953,17.047,38,38,38
		s38-17.047,38-38s-17.047-38-38-38c-9.859,0-19.217,3.787-26.349,10.664l-3.563,3.435l-4.427-2.213l-49.156-24.578l-5.427-2.714
		l1.916-5.757C315.316,118.853,317,108.478,317,98c0-3.303-0.168-6.641-0.5-9.923l-0.61-6.037l5.889-1.461l99.021-24.557
		l4.788-1.188l2.729,4.11C435.408,69.624,447.251,76,460,76c20.953,0,38-17.047,38-38S480.953,0,460,0z M38,60
		c-12.131,0-22-9.869-22-22s9.869-22,22-22s22,9.869,22,22S50.131,60,38,60z M69,270c-12.131,0-22-9.869-22-22s9.869-22,22-22
		s22,9.869,22,22S81.131,270,69,270z M279,226c12.131,0,22,9.869,22,22v60c0,4.411,3.589,8,8,8s8-3.589,8-8v-30
		c0-12.131,9.869-22,22-22s22,9.869,22,22v30c0,4.411,3.589,8,8,8s8-3.589,8-8c0-12.131,9.869-22,22-22s22,9.869,22,22
		c0,73.815-15.936,135.223-22.787,158.198c-2.819,9.452-11.307,15.803-21.122,15.803L207.542,482
		c-8.362,0-15.892-4.64-19.652-12.109l-0.015-0.03l-0.015-0.031l-55.833-113.662l-0.022-0.043c-4.613-9.226-2.117-20.59,5.93-27.028
		l31.691-25.353L181,294.646v14.564V338c0,4.411,3.589,8,8,8s8-3.589,8-8V98c0-12.131,9.869-22,22-22s22,9.869,22,22v210
		c0,4.411,3.589,8,8,8s8-3.589,8-8v-60C257,235.869,266.869,226,279,226z M268.207,163.598L257,172.025v-14.022V98
		c0-20.953-17.047-38-38-38s-38,17.047-38,38v60.003v14.022l-11.207-8.428C149.259,148.156,137,123.634,137,98
		c0-45.215,36.785-82,82-82s82,36.785,82,82C301,123.634,288.741,148.157,268.207,163.598z M399,166c12.131,0,22,9.869,22,22
		s-9.869,22-22,22s-22-9.869-22-22S386.869,166,399,166z M460,60c-12.131,0-22-9.869-22-22s9.869-22,22-22s22,9.869,22,22
		S472.131,60,460,60z"/>
</g>
<g id="Layer_1">
</g>
</svg>
