<?xml version="1.0" encoding="iso-8859-1"?>
<!-- Generator: Adobe Illustrator 22.0.1, SVG Export Plug-In . SVG Version: 6.00 Build 0)  -->
<svg version="1.1" xmlns="http://www.w3.org/2000/svg" xmlns:xlink="http://www.w3.org/1999/xlink" x="0px" y="0px"
	 viewBox="0 0 512 477.63" style="enable-background:new 0 0 512 477.63;" xml:space="preserve">
<g id="goals">
	<path d="M128.436,91.132c3.31,3.309,3.31,8.676,0,11.987l-40.094,40.093c-1.589,1.59-3.745,2.482-5.993,2.482
		c-0.025,0-0.048,0-0.073,0c-2.273-0.02-4.443-0.953-6.023-2.587l-15.753-16.31c-3.252-3.369-3.159-8.733,0.209-11.986
		c3.368-3.253,8.736-3.157,11.984,0.208l9.762,10.107l33.995-33.993C119.76,87.821,125.129,87.822,128.436,91.132z M116.45,188.931
		l-33.995,33.994l-9.762-10.106c-3.248-3.366-8.616-3.462-11.984-0.209c-3.369,3.252-3.462,8.618-0.209,11.986l15.753,16.31
		c1.58,1.636,3.75,2.567,6.023,2.588c0.023,0,0.048,0,0.073,0c2.248,0,4.404-0.893,5.993-2.483l40.094-40.092
		c3.31-3.31,3.31-8.677,0-11.988C125.129,185.622,119.76,185.621,116.45,188.931z M116.449,286.731l-33.995,33.993l-9.762-10.105
		c-3.248-3.368-8.616-3.463-11.983-0.208c-3.369,3.251-3.462,8.617-0.209,11.983l15.753,16.309c1.58,1.636,3.75,2.567,6.023,2.588
		c0.023,0,0.048,0,0.073,0c2.248,0,4.404-0.892,5.993-2.482l40.094-40.092c3.31-3.312,3.31-8.677,0.001-11.987
		S119.759,283.422,116.449,286.731z M152.132,138.787h79.376c4.681,0,8.476-3.795,8.476-8.476s-3.796-8.475-8.476-8.475h-79.376
		c-4.682,0-8.476,3.795-8.476,8.475C143.656,134.993,147.451,138.787,152.132,138.787z M451.692,338.909
		c-4.549-1.106-9.133,1.678-10.24,6.228c-1.69,6.932-3.852,13.826-6.424,20.483c-2.692,6.969-5.884,13.817-9.488,20.354
		c-2.26,4.101-0.768,9.256,3.332,11.516c1.298,0.715,2.701,1.053,4.083,1.053c2.989,0,5.887-1.584,7.431-4.385
		c3.971-7.206,7.489-14.751,10.455-22.428c2.836-7.34,5.217-14.937,7.079-22.58C459.03,344.602,456.239,340.017,451.692,338.909z
		 M459.272,285.54c-0.043,0-0.085,0-0.127,0.002c-4.682,0.069-8.42,3.917-8.351,8.599c0.11,7.436-0.279,10.928-1.244,18.8
		c-0.57,4.646,2.734,8.875,7.38,9.445c0.35,0.043,0.699,0.065,1.045,0.065c4.22,0,7.874-3.149,8.401-7.445
		c1.013-8.253,1.495-12.598,1.369-21.113C467.676,289.254,463.894,285.54,459.272,285.54z M275.018,460.683
		c-9.147-0.334-18.325-1.433-27.279-3.268c-4.58-0.933-9.065,2.017-10.005,6.602c-0.94,4.584,2.015,9.065,6.602,10.005
		c9.866,2.023,19.981,3.233,30.063,3.602c0.105,0.004,0.209,0.005,0.313,0.005c4.54,0,8.298-3.594,8.466-8.167
		C283.35,464.784,279.696,460.854,275.018,460.683z M405.978,409.049c-4.811,5.145-9.996,10.036-15.417,14.535
		c-5.26,4.368-10.848,8.457-16.607,12.148c-5.996,3.846-12.298,7.336-18.73,10.375c-8.129,3.843-16.623,7.04-25.248,9.507
		c-7.896,2.26-16.045,3.945-24.226,5.013c-4.642,0.606-7.913,4.859-7.307,9.5c0.555,4.27,4.201,7.381,8.393,7.381
		c0.366,0,0.736-0.023,1.108-0.073c9.011-1.176,17.993-3.033,26.693-5.524c9.507-2.719,18.871-6.244,27.829-10.478
		c7.086-3.349,14.027-7.194,20.634-11.429c6.343-4.067,12.496-8.567,18.289-13.377c5.965-4.953,11.676-10.337,16.97-16
		c3.196-3.42,3.017-8.784-0.402-11.98C414.538,405.448,409.176,405.629,405.978,409.049z M509.516,123.41l-46.178,46.178
		c-1.605,1.605-3.768,2.483-5.994,2.483c-0.553,0-1.108-0.054-1.662-0.165l-31.085-6.219L395.1,195.328
		c23.752,26.46,38.226,61.41,38.226,99.682c0,82.371-67.014,149.384-149.384,149.384c-36.901,0-70.714-13.457-96.807-35.711H8.476
		c-4.68,0-8.476-3.795-8.476-8.476V51.121c0-4.681,3.795-8.476,8.476-8.476h73.352v-8.595c0-4.681,3.794-8.476,8.476-8.476h20.359
		V8.476c0-4.681,3.794-8.476,8.475-8.476h54.144c4.68,0,8.475,3.794,8.475,8.476v17.1h20.359c4.681,0,8.476,3.794,8.476,8.476v8.595
		h73.353c4.68,0,8.476,3.794,8.476,8.476v94.755c34.686,1.949,66.244,15.789,90.663,37.499l29.963-30.11l-5.998-29.992
		c-0.556-2.78,0.315-5.653,2.317-7.656l46.177-46.179c2.212-2.209,5.458-3.024,8.45-2.119c2.991,0.906,5.242,3.384,5.855,6.45
		l5.891,29.448l29.447,5.891c3.066,0.612,5.545,2.863,6.451,5.854C512.541,117.955,511.728,121.202,509.516,123.41z M127.614,25.575
		h37.191v-8.624h-37.191V25.575z M98.78,55.449h94.858V42.645v-0.118h-12.811h-69.235H98.78v0.118V55.449z M170.198,391.732
		c-22.21-26.081-35.637-59.859-35.637-96.72c0-21.345,4.509-41.654,12.612-60.038c-2.127-1.54-3.516-4.037-3.516-6.863
		c0-4.681,3.794-8.476,8.476-8.476h2.887c24.617-41.944,69.108-70.873,120.447-73.759V59.598H210.59v4.326
		c0,4.681-3.794,8.476-8.476,8.476H90.304c-4.681,0-8.476-3.794-8.476-8.476v-4.326H16.953v332.134H170.198z M383.125,207.363
		l-21.87,21.976c15.07,17.713,24.18,40.647,24.18,65.673c0,55.963-45.528,101.492-101.491,101.492
		c-55.964,0-101.493-45.529-101.493-101.492c0-55.962,45.529-101.491,101.493-101.491c24.848,0,47.636,8.981,65.298,23.861
		l21.871-21.979c-23.309-20.422-53.816-32.821-87.169-32.821c-73.024,0-132.432,59.408-132.432,132.431
		c0,73.024,59.409,132.431,132.432,132.431s132.431-59.407,132.431-132.431C416.374,261.43,403.802,230.732,383.125,207.363z
		 M277.952,289.02l29.93-30.076c-6.862-4.57-15.094-7.241-23.938-7.241c-23.882,0-43.31,19.43-43.31,43.31
		c0,23.882,19.428,43.31,43.31,43.31c23.881,0,43.309-19.428,43.309-43.31c0-8.92-2.713-17.218-7.352-24.116l-29.963,30.109
		c-1.654,1.656-3.823,2.483-5.993,2.483c-2.17,0-4.338-0.827-5.993-2.483C274.64,297.695,274.64,292.329,277.952,289.02z
		 M486.332,122.624l-19.458-3.893c-3.355-0.671-5.977-3.294-6.649-6.648l-3.894-19.46l-31.771,31.775l5,24.998l24.999,5.001
		L486.332,122.624z"/>
</g>
<g id="Layer_1">
</g>
</svg>
