<?xml version="1.0" encoding="iso-8859-1"?>
<!-- Generator: Adobe Illustrator 22.0.1, SVG Export Plug-In . SVG Version: 6.00 Build 0)  -->
<svg version="1.1" xmlns="http://www.w3.org/2000/svg" xmlns:xlink="http://www.w3.org/1999/xlink" x="0px" y="0px"
	 viewBox="0 0 512 332.705" style="enable-background:new 0 0 512 332.705;" xml:space="preserve">
<g id="growth">
	<path d="M511.999,284.525c-0.014-3.072-1.917-5.912-4.796-7.025l-58.248-22.52v-84.851c0-4.143-3.357-7.5-7.5-7.5
		s-7.5,3.357-7.5,7.5v59.407c-77.185,0.318-152.01,0.308-228.468-0.031c-4.129-0.066-7.515,3.324-7.533,7.467
		c-0.019,4.142,3.325,7.515,7.467,7.533c39.484,0.175,78.531,0.263,117.691,0.263c36.694,0,73.495-0.078,110.844-0.232v8.085H78.307
		v-8.046c13.988,0.125,27.845,0.191,41.692,0.191c16.347,0,32.693-0.087,49.269-0.261c4.142-0.044,7.464-3.437,7.421-7.579
		c-0.043-4.142-3.42-7.421-7.578-7.421c-30.564,0.322-60.354,0.342-90.804,0.069v-82.155c0-4.143-3.358-7.5-7.5-7.5
		c-4.142,0-7.5,3.357-7.5,7.5v107.46L4.795,277.5C1.91,278.614,0,281.472,0,284.552v22.845c0,13.955,11.354,25.308,25.309,25.308
		h461.383c13.955,0,25.308-11.352,25.308-25.308v-22.838C511.999,284.548,511.999,284.536,511.999,284.525z M71.944,267.621h368.112
		l24.246,9.374H47.698L71.944,267.621z M496.999,307.397c0,5.684-4.624,10.308-10.308,10.308H114.975v-8.082
		c0-4.143-3.358-7.5-7.5-7.5c-4.142,0-7.5,3.357-7.5,7.5v8.082H88.086v-8.082c0-4.143-3.358-7.5-7.5-7.5c-4.142,0-7.5,3.357-7.5,7.5
		v8.082H61.197v-8.082c0-4.143-3.358-7.5-7.5-7.5c-4.142,0-7.5,3.357-7.5,7.5v8.082H25.309c-5.684,0-10.309-4.624-10.309-10.308
		v-15.402h481.999V307.397z M70.807,121.458c4.142,0,7.5-3.357,7.5-7.5V57.437h355.648v0.464l-69.895,69.895l-21.56-21.562
		c-2.93-2.928-7.678-2.928-10.607,0l-50.729,50.73l-21.332-21.333c-1.407-1.406-3.314-2.196-5.304-2.196
		c-1.99,0-3.897,0.79-5.303,2.196l-58.164,58.164c-2.929,2.93-2.929,7.678,0,10.607c1.464,1.464,3.384,2.196,5.303,2.196
		c1.919,0,3.839-0.732,5.303-2.196l52.86-52.861l21.332,21.333c2.93,2.928,7.678,2.928,10.607,0l50.729-50.73l21.561,21.562
		c2.93,2.928,7.678,2.928,10.607,0l64.591-64.591v57.463c0,4.143,3.357,7.5,7.5,7.5s7.5-3.357,7.5-7.5V64.115l15.983-15.983
		c3.573,1.901,7.645,2.983,11.966,2.983c14.093,0,25.558-11.465,25.558-25.557C502.461,11.465,490.996,0,476.903,0
		c-14.092,0-25.557,11.465-25.557,25.558c0,4.321,1.082,8.393,2.984,11.966l-5.376,5.376v-7.385c0-8.93-7.266-16.195-16.195-16.195
		H79.502c-8.93,0-16.195,7.266-16.195,16.195v78.442C63.307,118.1,66.665,121.458,70.807,121.458z M476.904,15
		c5.821,0,10.558,4.736,10.558,10.558c0,5.803-4.708,10.525-10.504,10.554l5.25-5.25c2.929-2.93,2.929-7.678,0-10.607
		c-2.93-2.928-7.678-2.928-10.607,0l-5.25,5.25C466.38,19.708,471.101,15,476.904,15z M78.307,35.515
		c0-0.659,0.536-1.195,1.195-1.195H432.76c0.659,0,1.195,0.536,1.195,1.195v6.921H78.307V35.515z M182.903,122.747V96.95
		c0-4.143-3.358-7.5-7.5-7.5h-70c-4.142,0-7.5,3.357-7.5,7.5v25.797c0,4.143,3.358,7.5,7.5,7.5h70
		C179.545,130.247,182.903,126.889,182.903,122.747z M167.903,115.247h-55V104.45h55V115.247z M138.53,148.694
		c0,4.143-3.358,7.5-7.5,7.5h-25.627c-4.142,0-7.5-3.357-7.5-7.5s3.358-7.5,7.5-7.5h25.627
		C135.172,141.194,138.53,144.551,138.53,148.694z M138.53,173.896c0,4.143-3.358,7.5-7.5,7.5h-25.627c-4.142,0-7.5-3.357-7.5-7.5
		s3.358-7.5,7.5-7.5h25.627C135.172,166.396,138.53,169.753,138.53,173.896z M138.53,199.099c0,4.143-3.358,7.5-7.5,7.5h-25.627
		c-4.142,0-7.5-3.357-7.5-7.5s3.358-7.5,7.5-7.5h25.627C135.172,191.599,138.53,194.956,138.53,199.099z M252.457,191.599
		c4.142,0,7.5,3.357,7.5,7.5s-3.358,7.5-7.5,7.5h-12.053c-4.142,0-7.5-3.357-7.5-7.5s3.358-7.5,7.5-7.5H252.457z M308.754,191.599
		c4.143,0,7.5,3.357,7.5,7.5s-3.357,7.5-7.5,7.5H296.7c-4.143,0-7.5-3.357-7.5-7.5s3.357-7.5,7.5-7.5H308.754z M365.051,191.599
		c4.143,0,7.5,3.357,7.5,7.5s-3.357,7.5-7.5,7.5h-12.054c-4.143,0-7.5-3.357-7.5-7.5s3.357-7.5,7.5-7.5H365.051z"/>
</g>
<g id="Layer_1">
</g>
</svg>
