<svg style="position: absolute; width: 0; height: 0; overflow: hidden;" version="1.1" xmlns="http://www.w3.org/2000/svg" xmlns:xlink="http://www.w3.org/1999/xlink">
<defs>

<symbol id="icon-info" viewBox="0 0 32 32">
	<title>icon-info</title>
	<path d="M24.396 7.634c-4.767-4.76-12.496-4.761-17.265 0-4.767 4.761-4.767 12.479 0 17.241 4.769 4.76 12.498 4.761 17.265 0 4.769-4.762 4.769-12.479 0-17.241zM22.957 23.438c-3.972 3.967-10.414 3.966-14.388 0-3.972-3.967-3.972-10.4 0-14.367 3.974-3.967 10.416-3.967 14.388 0 3.974 3.967 3.974 10.4 0 14.367z"></path>
	<path d="M17.799 11.174c0 1.122-0.911 2.032-2.035 2.032s-2.035-0.91-2.035-2.032c0-1.122 0.911-2.032 2.035-2.032s2.035 0.91 2.035 2.032z"></path>
	<path d="M15.78 14.222c-1.124 0-2.035 0.91-2.035 2.032v5.079c0 1.122 0.911 2.032 2.035 2.032s2.035-0.91 2.035-2.032v-5.079c0-1.122-0.911-2.032-2.035-2.032z"></path>
</symbol>


<symbol id="icon-mail" viewBox="0 0 28 28">
	<title>envelope-o</title>
	<path d="M26 23.5v-12c-0.328 0.375-0.688 0.719-1.078 1.031-2.234 1.719-4.484 3.469-6.656 5.281-1.172 0.984-2.625 2.188-4.25 2.188h-0.031c-1.625 0-3.078-1.203-4.25-2.188-2.172-1.813-4.422-3.563-6.656-5.281-0.391-0.313-0.75-0.656-1.078-1.031v12c0 0.266 0.234 0.5 0.5 0.5h23c0.266 0 0.5-0.234 0.5-0.5zM26 7.078c0-0.391 0.094-1.078-0.5-1.078h-23c-0.266 0-0.5 0.234-0.5 0.5 0 1.781 0.891 3.328 2.297 4.438 2.094 1.641 4.188 3.297 6.266 4.953 0.828 0.672 2.328 2.109 3.422 2.109h0.031c1.094 0 2.594-1.437 3.422-2.109 2.078-1.656 4.172-3.313 6.266-4.953 1.016-0.797 2.297-2.531 2.297-3.859zM28 6.5v17c0 1.375-1.125 2.5-2.5 2.5h-23c-1.375 0-2.5-1.125-2.5-2.5v-17c0-1.375 1.125-2.5 2.5-2.5h23c1.375 0 2.5 1.125 2.5 2.5z"></path>
</symbol>
<symbol id="icon-search" viewBox="0 0 32 32">
	<title>search</title>
	<path d="M31.008 27.231l-7.58-6.447c-0.784-0.705-1.622-1.029-2.299-0.998 1.789-2.096 2.87-4.815 2.87-7.787 0-6.627-5.373-12-12-12s-12 5.373-12 12 5.373 12 12 12c2.972 0 5.691-1.081 7.787-2.87-0.031 0.677 0.293 1.515 0.998 2.299l6.447 7.58c1.104 1.226 2.907 1.33 4.007 0.23s0.997-2.903-0.23-4.007zM12 20c-4.418 0-8-3.582-8-8s3.582-8 8-8 8 3.582 8 8-3.582 8-8 8z"></path>
</symbol>
<symbol id="icon-map-marker" viewBox="0 0 33 40">
	<title>map-marker</title>
	<path d="M16.419 4.084c3.159 0 6.319 1.218 8.73 3.653 4.821 4.871 4.821 12.768 0 17.637l-8.731 8.82-8.729-8.82c-4.821-4.869-4.821-12.766 0-17.637 2.411-2.435 5.57-3.653 8.73-3.653zM16.419 0c-4.397 0-8.528 1.728-11.633 4.863-6.382 6.448-6.381 16.938 0 23.385l11.632 11.751 11.634-11.752c6.381-6.446 6.382-16.936 0-23.384-3.106-3.136-7.237-4.863-11.633-4.863v0zM16.418 12.801c1.031 0 2 0.411 2.728 1.159 1.505 1.546 1.505 4.061 0 5.604-0.728 0.747-1.698 1.16-2.728 1.16-1.031 0-1.999-0.412-2.728-1.16-1.505-1.545-1.505-4.059 0-5.604 0.728-0.747 1.697-1.159 2.728-1.159zM16.418 8.717c-2.142 0-4.151 0.849-5.653 2.393-3.036 3.117-3.036 8.188-0.001 11.303 1.509 1.546 3.516 2.394 5.654 2.394 2.141 0 4.149-0.851 5.653-2.393 3.036-3.115 3.037-8.186 0.001-11.304-1.505-1.544-3.512-2.393-5.654-2.393v0z"></path>
</symbol>

<symbol id="icon-money-heart" viewBox="0 0 49 40">
	<title>money-heart</title>
	<path d="M37.74 0c-8.504 0-17.029 0-25.645 0-9.36 0-12.095 1.067-12.095 12.237 0 5.774 0 9.567 0 15.296 0 10.999 3.083 12.468 12.297 12.468 8.718 0 16.276 0 24.714 0 8.323 0 12.024-1.716 12.024-12.674 0-5.752 0-8.458 0-14.199-0.001-10.936-2.371-13.129-11.295-13.129zM38.136 34.107h-27.267c0-2.824-3.307-5.112-5.857-5.112l0.043-18.521c2.529-0.025 5.813-2.304 5.813-5.111h27.267c0 2.808 3.284 5.086 5.813 5.111l0.043 18.521c-2.547 0-5.855 2.288-5.855 5.112zM24.775 8.758c-6.157 0-11.149 5.080-11.149 11.345 0 6.266 4.992 11.346 11.149 11.346 6.158 0 11.15-5.079 11.15-11.346 0-6.265-4.992-11.345-11.15-11.345zM30.709 19.172c0-0.164-0.025-0.32-0.047-0.477-0.088 0.879-0.296 2.048-0.598 2.458l-5.325 6.022-5.325-6.022c-0.404-0.552-0.643-1.237-0.643-1.981 0-1.815 1.426-3.287 3.186-3.287 1.197 0 2.24 0.683 2.784 1.691 0.544-1.008 1.587-1.691 2.784-1.691 1.602 0 2.913 1.224 3.139 2.81 0.030-0.304 0.047-0.573 0.047-0.764v1.241z"></path>
</symbol>

<symbol id="icon-globe" viewBox="0 0 40 40">
	<title>globe</title>
	<path d="M19.769 4.030c8.676 0 15.737 7.165 15.737 15.969 0 8.805-7.060 15.97-15.737 15.97-8.679 0-15.738-7.164-15.738-15.97 0-8.804 7.059-15.969 15.738-15.969 0.001 0 0 0 0 0zM19.769 0c-10.9 0-19.769 8.972-19.769 19.999s8.869 20.001 19.769 20.001c10.9 0 19.768-8.973 19.768-20.001s-8.868-19.999-19.768-19.999v0zM32.432 19.999c0 2.94-0.983 5.651-2.623 7.816-0.463-0.367-0.957-1.361-0.494-2.39 0.469-1.036 0.59-3.434 0.483-4.368-0.102-0.932-0.58-3.178-1.877-3.2-1.296-0.019-2.185-0.453-2.955-2.014-1.597-3.245 2.999-3.868 1.402-5.664-0.446-0.505-2.758 2.075-3.096-1.364-0.022-0.246 0.209-0.615 0.52-0.998 5.016 1.712 8.641 6.525 8.641 12.182v0zM18.030 7.277c-0.303 0.599-1.103 0.843-1.588 1.294-1.058 0.971-1.512 0.836-2.082 1.768-0.574 0.932-2.423 2.274-2.423 2.949s0.934 1.469 1.401 1.315c0.467-0.157 1.7-0.147 2.423 0.11 0.725 0.26 6.053 0.521 4.355 5.090-0.538 1.454-2.897 1.209-3.525 3.614-0.095 0.353-0.42 1.861-0.44 2.354-0.039 0.763 0.532 3.638-0.193 3.638-0.728 0-2.688-2.572-2.688-3.039s-0.507-2.101-0.507-3.5c0-1.398-2.348-1.376-2.348-3.236 0-1.676 1.273-2.511 0.986-3.316-0.28-0.8-2.516-0.826-3.449-0.925 1.629-4.284 5.46-7.465 10.078-8.116v0zM17.783 32.399c0.55-0.295 0.607-0.676 1.105-0.695 0.57-0.026 1.035-0.226 1.678-0.37 0.57-0.126 1.592-0.713 2.49-0.789 0.759-0.062 2.254 0.039 2.656 0.782-1.449 0.977-3.186 1.547-5.049 1.547-1.006 0-1.974-0.169-2.88-0.475v0z"></path>
</symbol>

<symbol id="icon-contact-plane" viewBox="0 0 40 40">
<title>contact-plane</title>
<path d="M34.582 4.051c0.23 0 0.46 0.071 0.636 0.195 0.371 0.267 0.548 0.694 0.477 1.139l-4.523 27.341c-0.053 0.338-0.265 0.623-0.565 0.801-0.159 0.089-0.353 0.143-0.548 0.143-0.141 0-0.283-0.035-0.424-0.089l-8.004-3.293-4.276 5.25c-0.212 0.267-0.53 0.41-0.866 0.41-0.124 0-0.265-0.018-0.389-0.072-0.442-0.16-0.742-0.587-0.742-1.068v-6.212l19.85-23.886-23.47 21.502-6.979-2.883c-0.406-0.16-0.671-0.535-0.707-0.979-0.017-0.427 0.194-0.837 0.565-1.050l29.399-17.088c0.176-0.106 0.371-0.16 0.565-0.16zM34.582 0c-0.919 0-1.823 0.248-2.619 0.719l-29.381 17.078c-1.664 0.956-2.657 2.768-2.577 4.719 0.002 0.052 0.005 0.102 0.009 0.154 0.158 1.985 1.388 3.67 3.216 4.41l6.961 2.876c0.363 0.15 0.739 0.244 1.118 0.285v4.569c0 2.139 1.323 4.067 3.305 4.836 0.586 0.235 1.217 0.354 1.877 0.354 1.576 0 3.038-0.698 4.018-1.915l2.365-2.905 5.221 2.148c0.037 0.015 0.075 0.030 0.112 0.045 0.615 0.232 1.239 0.349 1.853 0.349 0.881 0 1.753-0.227 2.523-0.656 0.031-0.017 0.062-0.035 0.092-0.053 1.351-0.801 2.262-2.136 2.502-3.66l4.517-27.305c0.315-1.988-0.494-3.927-2.108-5.089-0.883-0.626-1.939-0.959-3.002-0.959v0z"></path>
</symbol>

<symbol id="icon-flag" viewBox="0 0 40 40">
	<title>flag</title>
	<path d="M13.311 4.006c0.692 0 1.235 0.523 2.744 2.318 2.248 2.677 5.645 6.722 12.818 6.722 0.52 0 1.052-0.021 1.595-0.063-3.358 3.779-4.618 4.016-4.768 4.032-0.256-0.063-0.963-0.596-1.43-0.948-1.519-1.146-3.816-2.877-7.22-2.878-2.952 0-6.062 1.276-9.703 3.997l-2.493-9.086 1.090-0.379 0.464-0.328c4.169-2.947 6.114-3.388 6.902-3.388zM13.311 0c-2.111 0-4.959 1.114-9.215 4.123l-4.096 1.421 9.45 34.456h4.47l-5.31-18.72c3.791-3.072 6.425-4.085 8.44-4.085 3.91 0 5.479 3.822 8.609 3.822 2.692 0 6.54-2.827 14.026-13.345 0.379-0.532 0.054-0.96-0.497-0.96-0.145 0-0.306 0.030-0.475 0.096-4.137 1.601-7.32 2.233-9.841 2.233-9.521 0.001-9.547-9.041-15.561-9.041v0z"></path>
</symbol>

<symbol id="icon-wallet" viewBox="0 0 32 32">
	<title>wallet</title>
	<path d="M16 20c0-1.105 0.895-2 2-2s2 0.895 2 2c0 1.105-0.895 2-2 2s-2-0.895-2-2zM29.001 13c-0.001 0-0.001 0 0 0l-0.001-6v-3c0-1.657-1.344-3-3-3h-20.5c-3.033 0-5.5 2.468-5.5 5.5v20c0 3.032 2.467 5.5 5.5 5.5h18c3.032 0 5.5-2.468 5.5-5.5v-1.5c0 0 0 0 0.001 0 3.998-3.001 3.998-8.999 0-12zM5.5 3h20.5c0.551 0 1 0.448 1 1v6.184c-0.314-0.112-0.648-0.184-1-0.184h-0.001v-5c0-0.553-0.448-1-1-1h-21c-0.552 0-1 0.447-1 1v3.943c-0.617-0.631-0.999-1.491-0.999-2.443 0-1.933 1.566-3.5 3.5-3.5zM24.999 6h-21v-1h21v1zM24.999 7v1h-21v-1h21zM24.999 9v1h-19.499c-0.54 0-1.044-0.132-1.5-0.35v-0.65h20.999zM27 26.5c0 1.933-1.567 3.5-3.5 3.5h-18c-1.934 0-3.5-1.567-3.5-3.5v-15.761c0.951 0.787 2.171 1.261 3.5 1.261h20.5c0.551 0 1 0.448 1 1v2h-9c-2.762 0-5 2.238-5 5s2.239 5 5 5h9v1.5zM28.277 23h-10.277c-1.654 0-3-1.346-3-3s1.346-3 3-3h9c0.617-0.008 1.229-0.307 1.602-0.804 0.104-0.14 0.185-0.297 0.25-0.461 0.009-0.022 0.025-0.039 0.033-0.062 0.719 0.943 1.115 2.099 1.115 3.327 0 1.538-0.621 2.965-1.723 4z"></path>
</symbol>


<symbol id="icon-star" viewBox="0 0 24 24">
	<title>star</title>
	<path d="M18.364 23.523c-0.379 0.002-0.777-0.107-1.184-0.322l-3.876-2.037c-0.648-0.342-1.96-0.342-2.61 0l-3.874 2.037c-0.97 0.51-1.941 0.389-2.494-0.266-0.267-0.316-0.551-0.891-0.39-1.828l0.74-4.316c0.13-0.76-0.255-1.943-0.807-2.482l-3.137-3.056c-0.657-0.643-0.905-1.406-0.681-2.096 0.225-0.689 0.875-1.161 1.785-1.293l4.332-0.63c0.764-0.111 1.771-0.842 2.111-1.533l1.939-3.928c0.407-0.824 1.056-1.296 1.782-1.296s1.375 0.473 1.781 1.297l1.939 3.928c0.341 0.691 1.348 1.422 2.111 1.533l4.332 0.63c0.91 0.132 1.561 0.604 1.785 1.293s-0.024 1.453-0.683 2.096l-3.137 3.056c-0.552 0.539-0.937 1.723-0.807 2.482l0.74 4.316c0.161 0.938-0.123 1.512-0.39 1.826-0.317 0.38-0.783 0.589-1.307 0.589zM12 18.895c0.83 0 1.624 0.178 2.235 0.5l3.853 2.025-0.735-4.291c-0.243-1.418 0.351-3.246 1.381-4.252l3.118-3.037-4.307-0.627c-1.426-0.207-2.981-1.336-3.617-2.627l-1.928-3.903-1.928 3.903c-0.636 1.291-2.191 2.42-3.617 2.627l-4.307 0.627 3.118 3.037c1.030 1.006 1.624 2.834 1.381 4.252l-0.735 4.291 3.852-2.025c0.612-0.323 1.406-0.5 2.236-0.5z"></path>
</symbol>

<symbol id="icon-directions" viewBox="0 0 28 42">
	<title>icon-directions</title>
	<path d="M12.806 12.362l-0.214-4.222c-0.031-0.62-0.543-1.106-1.164-1.106h-4.664c-0.622 0-1.135 0.489-1.164 1.11l-0.201 4.218h-2.975l-2.423 29.638h18.206l-2.412-29.638h-2.988zM7.876 9.364h2.444l0.136 2.663h-2.707l0.127-2.663zM2.529 39.668l2.042-24.976h9.074l2.032 24.976h-13.148zM6.992 18.993c0.375 0 0.74-0.156 1.004-0.429 0.259-0.267 0.4-0.629 0.389-0.965 0-0.779-0.601-1.39-1.373-1.4-0.375-0.013-0.744 0.132-1.012 0.399-0.275 0.273-0.425 0.65-0.41 1.030 0.026 0.765 0.643 1.365 1.403 1.365zM6.8 17.405c0.066-0.068 0.148-0.078 0.192-0.078 0.124 0 0.256 0.090 0.26 0.239 0.003 0.081-0.027 0.159-0.082 0.214-0.052 0.051-0.122 0.080-0.196 0.082-0.132-0.011-0.254-0.132-0.253-0.237-0.003-0.085 0.025-0.166 0.079-0.221zM6.992 22.284c-0.774 0-1.403 0.635-1.403 1.416 0 0.376 0.155 0.742 0.427 1.004 0.259 0.251 0.594 0.386 0.947 0.386 0.011 0 0.022 0 0.033 0 0.763-0.007 1.375-0.61 1.399-1.403 0-0.76-0.643-1.403-1.403-1.403zM6.992 23.949c-0.154 0-0.262-0.108-0.262-0.287 0.004-0.124 0.112-0.229 0.239-0.237 0.077 0.001 0.15 0.030 0.204 0.081s0.081 0.119 0.081 0.193c-0.001 0.135-0.12 0.249-0.262 0.249zM6.992 28.369c-0.774 0-1.403 0.634-1.403 1.413 0 0.774 0.629 1.403 1.403 1.403 0.374 0 0.738-0.154 0.999-0.424 0.256-0.264 0.399-0.624 0.394-0.99 0.004-0.36-0.137-0.715-0.392-0.978-0.262-0.27-0.627-0.425-1.002-0.425zM6.992 30.035c-0.074 0-0.145-0.030-0.195-0.081-0.045-0.047-0.072-0.111-0.076-0.18 0.004-0.063 0.030-0.124 0.075-0.17 0.051-0.053 0.122-0.082 0.196-0.082 0.149 0 0.261 0.113 0.261 0.261 0 0.141-0.114 0.251-0.261 0.251zM6.992 34.456c-0.774 0-1.403 0.634-1.403 1.413 0 0.774 0.629 1.403 1.403 1.403 0.374 0 0.738-0.154 0.999-0.424 0.256-0.264 0.399-0.624 0.394-0.99 0.004-0.36-0.137-0.715-0.392-0.978-0.262-0.27-0.627-0.425-1.002-0.425zM6.992 36.121c-0.074 0-0.145-0.030-0.195-0.081-0.045-0.047-0.072-0.111-0.076-0.18 0.004-0.063 0.030-0.124 0.075-0.17 0.051-0.053 0.122-0.082 0.196-0.082 0.149 0 0.261 0.113 0.261 0.261 0 0.141-0.114 0.251-0.261 0.251zM11.429 18.993c0.375 0 0.74-0.156 1.004-0.429 0.259-0.267 0.4-0.629 0.389-0.965 0-0.779-0.601-1.39-1.373-1.4-0.375-0.013-0.744 0.132-1.012 0.399-0.275 0.273-0.425 0.65-0.41 1.030 0.026 0.765 0.643 1.365 1.403 1.365zM11.238 17.405c0.066-0.068 0.148-0.078 0.192-0.078 0.124 0 0.256 0.090 0.26 0.239 0.003 0.081-0.027 0.159-0.082 0.214-0.052 0.051-0.122 0.080-0.196 0.082-0.132-0.011-0.254-0.132-0.253-0.237-0.003-0.085 0.025-0.166 0.079-0.221zM11.429 22.284c-0.774 0-1.403 0.635-1.403 1.416 0 0.376 0.155 0.742 0.427 1.004 0.259 0.251 0.594 0.386 0.947 0.386 0.011 0 0.022 0 0.033 0 0.763-0.007 1.375-0.61 1.399-1.403 0-0.76-0.643-1.403-1.403-1.403zM11.429 23.949c-0.154 0-0.262-0.108-0.262-0.287 0.004-0.124 0.112-0.229 0.239-0.237 0.077 0.001 0.15 0.030 0.204 0.081s0.081 0.119 0.081 0.193c-0.001 0.135-0.12 0.249-0.262 0.249zM11.429 28.369c-0.774 0-1.403 0.634-1.403 1.413 0 0.774 0.629 1.403 1.403 1.403 0.374 0 0.738-0.154 0.999-0.424 0.256-0.264 0.399-0.624 0.394-0.99 0.004-0.36-0.137-0.715-0.392-0.978-0.262-0.27-0.627-0.425-1.002-0.425zM11.429 30.035c-0.074 0-0.145-0.030-0.195-0.081-0.045-0.047-0.072-0.111-0.076-0.18 0.004-0.063 0.030-0.124 0.075-0.17 0.051-0.053 0.122-0.082 0.196-0.082 0.149 0 0.261 0.113 0.261 0.261 0 0.141-0.114 0.251-0.261 0.251zM11.429 34.456c-0.774 0-1.403 0.634-1.403 1.413 0 0.774 0.629 1.403 1.403 1.403 0.374 0 0.738-0.154 0.999-0.424 0.256-0.264 0.399-0.624 0.394-0.99 0.004-0.36-0.137-0.715-0.392-0.978-0.262-0.27-0.627-0.425-1.002-0.425zM11.429 36.121c-0.074 0-0.145-0.030-0.195-0.081-0.045-0.047-0.072-0.111-0.076-0.18 0.004-0.063 0.030-0.124 0.075-0.17 0.051-0.053 0.122-0.082 0.196-0.082 0.149 0 0.261 0.113 0.261 0.261 0 0.141-0.114 0.251-0.261 0.251zM26.942 9.429c-1.75-7.182-6.13-8.811-6.316-8.877l-1.555-0.551 0.001 27.469h0.653v11.519c0 1.629 1.329 2.955 2.962 2.955 1.603 0 2.913-1.278 2.96-2.867 0.064-0.491 0.382-3.163 0.007-5.402-0.371-2.216-0.219-4.877-0.102-6.205h2.753l0.030-1.135c0.011-0.412 0.247-10.18-1.393-16.906zM23.328 38.826c-0.007 0.053-0.011 0.108-0.011 0.163 0 0.344-0.283 0.624-0.629 0.624s-0.631-0.279-0.631-0.624v-11.345h1.14c-0.119 1.529-0.225 4.132 0.158 6.417 0.346 2.062-0.022 4.739-0.026 4.766zM26.018 25.138h-4.615l-0.001-21.305c1.086 1.015 2.48 2.881 3.276 6.147 1.249 5.126 1.351 12.387 1.34 15.158z"></path>
</symbol>


<symbol id="icon-play-button" viewBox="0 0 42 42">
	<title>play-button</title>
	<path d="M20.966 0c-11.579 0-20.966 9.402-20.966 21s9.387 21 20.966 21c11.579 0 20.966-9.402 20.966-21s-9.387-21-20.966-21zM20.966 36.76c-8.684 0-15.724-7.056-15.724-15.76s7.040-15.76 15.724-15.76c8.684 0 15.724 7.056 15.724 15.76s-7.040 15.76-15.724 15.76zM29.635 21.78c-0.679 0.386-11.766 6.566-12.569 6.995-0.588 0.315-1.359-0.032-1.359-0.749 0-0.727 0-13.485 0-13.986 0-0.65 0.698-1.134 1.387-0.753 0.553 0.304 11.599 6.453 12.541 6.978 0.618 0.346 0.608 1.169 0 1.515z"></path>
</symbol>
<symbol id="icon-controller-play" viewBox="0 0 40 40">
	<title>controller-play</title>
	<path d="M30 20.002c0 0.598-0.61 1.028-0.61 1.028l-17.122 10.606c-1.248 0.818-2.268 0.212-2.268-1.338v-20.594c0-1.554 1.020-2.156 2.27-1.34l17.122 10.61c-0.002 0 0.608 0.43 0.608 1.028z"></path>
</symbol>

<symbol id="icon-right-arrow" viewBox="0 0 48 48">
<title>arrow-right</title>
<path d="M29.121 41.121l15-15c1.172-1.172 1.172-3.071 0-4.243l-15-15c-1.172-1.171-3.071-1.171-4.243 0s-1.172 3.071 0 4.243l9.879 9.879h-28.757c-1.657 0-3 1.343-3 3s1.343 3 3 3h28.757l-9.879 9.879c-0.586 0.586-0.879 1.354-0.879 2.121s0.293 1.536 0.879 2.121c1.172 1.172 3.071 1.172 4.243 0z"></path>
</symbol>
<symbol id="icon-left-arrow" viewBox="0 0 48 48">
<title>arrow-left</title>
<path d="M18.879 41.121l-15-15c-1.172-1.172-1.172-3.071 0-4.243l15-15c1.172-1.171 3.071-1.171 4.243 0s1.172 3.071 0 4.243l-9.879 9.879h28.757c1.657 0 3 1.343 3 3s-1.343 3-3 3h-28.757l9.879 9.879c0.586 0.586 0.879 1.354 0.879 2.121s-0.293 1.536-0.879 2.121c-1.172 1.172-3.071 1.172-4.243 0z"></path>
</symbol>
<symbol id="icon-down-arrow" viewBox="0 0 24 24">
	<title>down-arrow</title>
	<path d="M7.406 7.828l4.594 4.594 4.594-4.594 1.406 1.406-6 6-6-6z"></path>
</symbol>

<symbol id="icon-calendar" viewBox="0 0 32 32">
	<title>calendar</title>
	<path d="M12.048 16.961c-0.178 0.257-0.395 0.901-0.652 1.059-0.257 0.157-0.547 0.267-0.869 0.328-0.323 0.062-0.657 0.089-1.002 0.079v1.527h2.467v6.046h1.991v-9.996h-1.584c-0.056 0.381-0.173 0.7-0.351 0.957zM23 8h2c0.553 0 1-0.448 1-1v-6c0-0.552-0.447-1-1-1h-2c-0.553 0-1 0.448-1 1v6c0 0.552 0.447 1 1 1zM7 8h2c0.552 0 1-0.448 1-1v-6c0-0.552-0.448-1-1-1h-2c-0.552 0-1 0.448-1 1v6c0 0.552 0.448 1 1 1zM30 4h-2v5c0 0.552-0.447 1-1 1h-6c-0.553 0-1-0.448-1-1v-5h-8v5c0 0.552-0.448 1-1 1h-6c-0.552 0-1-0.448-1-1v-5h-2c-1.104 0-2 0.896-2 2v24c0 1.104 0.896 2 2 2h28c1.104 0 2-0.896 2-2v-24c0-1.104-0.896-2-2-2zM30 29c0 0.553-0.447 1-1 1h-26c-0.552 0-1-0.447-1-1v-16c0-0.552 0.448-1 1-1h26c0.553 0 1 0.448 1 1v16zM15.985 17.982h4.968c-0.936 1.152-1.689 2.325-2.265 3.705-0.575 1.381-0.638 2.818-0.749 4.312h2.131c0.009-0.666-0.195-1.385-0.051-2.156 0.146-0.771 0.352-1.532 0.617-2.285 0.267-0.752 0.598-1.461 0.996-2.127 0.396-0.667 0.853-1.229 1.367-1.686v-1.742h-7.015v1.979z"></path>
</symbol>

<symbol id="icon-location"  viewBox="0 0 32 32">
	<title>location</title>
	<path d="M16.002 17.746c3.309 0 6-2.692 6-6s-2.691-6-6-6c-3.309 0-6 2.691-6 6s2.691 6 6 6zM16.002 6.746c2.758 0 5 2.242 5 5s-2.242 5-5 5c-2.758 0-5-2.242-5-5s2.242-5 5-5zM16 0c-6.618 0-12 5.316-12 12.001 0 7 6.001 14.161 10.376 19.194 0.016 0.020 0.718 0.805 1.586 0.805 0.002 0 0.073 0 0.077 0 0.867 0 1.57-0.785 1.586-0.805 4.377-5.033 10.377-12.193 10.377-19.194 0-6.685-5.383-12.001-12.002-12.001zM16.117 29.883c-0.021 0.020-0.082 0.064-0.135 0.098-0.010-0.027-0.084-0.086-0.129-0.133-3.665-4.217-9.853-11.334-9.853-17.847 0-5.514 4.487-10.001 10-10.001 5.516 0 10.002 4.487 10.002 10.002 0 6.512-6.188 13.629-9.885 17.881z"></path>
</symbol>
<symbol id="icon-world" viewBox="0 0 48 48">
	<title>world</title>
	<path d="M23.25 0c-12.841 0-23.25 10.409-23.25 23.25s10.409 23.25 23.25 23.25 23.25-10.409 23.25-23.25-10.409-23.25-23.25-23.25zM43.463 22.5h-8.994c-0.083-3.322-0.674-6.496-1.722-9.402 2.025-0.845 3.897-1.968 5.604-3.296 3.035 3.407 4.932 7.83 5.112 12.698zM22.42 43.458c-2.493-2.076-4.584-4.771-6.114-7.902 1.963-0.613 4.044-0.949 6.193-1.018v8.924c-0.027 0-0.052-0.002-0.079-0.003zM24.076 3.042c2.829 2.355 5.138 5.51 6.699 9.189-2.139 0.731-4.412 1.155-6.777 1.23v-10.424c0.028 0.002 0.052 0.003 0.078 0.005zM26.575 3.297c4.14 0.689 7.854 2.622 10.746 5.421-1.571 1.204-3.286 2.224-5.142 2.997-1.365-3.236-3.28-6.096-5.604-8.418zM22.5 3.037v10.424c-2.366-0.077-4.639-0.499-6.777-1.23 1.562-3.679 3.87-6.834 6.699-9.189 0.027-0.001 0.051-0.003 0.078-0.005zM14.319 11.716c-1.852-0.772-3.57-1.793-5.14-2.997 2.89-2.799 6.606-4.732 10.746-5.421-2.325 2.321-4.239 5.181-5.605 8.418zM15.158 13.614c2.313 0.803 4.778 1.27 7.342 1.349v7.538h-8.968c0.081-3.141 0.638-6.143 1.626-8.886zM22.5 24v9.037c-2.366 0.072-4.653 0.459-6.808 1.154-1.299-3.093-2.066-6.539-2.16-10.191h8.968zM19.924 43.203c-3.71-0.617-7.078-2.232-9.817-4.578 1.478-1.025 3.075-1.892 4.782-2.55 1.308 2.712 3.020 5.12 5.036 7.128zM24 43.463v-8.924c2.148 0.069 4.23 0.405 6.193 1.019-1.532 3.13-3.621 5.826-6.114 7.902-0.026 0-0.053 0.002-0.080 0.003zM31.611 36.075c1.706 0.658 3.301 1.527 4.782 2.55-2.739 2.344-6.108 3.962-9.818 4.578 2.016-2.008 3.726-4.416 5.035-7.128zM30.809 34.191c-2.157-0.695-4.445-1.082-6.809-1.154v-9.038h8.968c-0.094 3.652-0.862 7.098-2.16 10.191zM24 22.5v-7.538c2.563-0.078 5.028-0.544 7.343-1.347 0.987 2.744 1.543 5.745 1.626 8.886h-8.968zM8.151 9.803c1.707 1.327 3.579 2.451 5.603 3.295-1.048 2.905-1.639 6.080-1.722 9.402h-8.994c0.18-4.867 2.077-9.291 5.113-12.697zM3.037 24h8.994c0.093 3.832 0.894 7.452 2.255 10.706-1.9 0.741-3.672 1.728-5.307 2.897-3.522-3.505-5.745-8.298-5.941-13.602zM37.521 37.6c-1.635-1.167-3.407-2.155-5.309-2.896 1.362-3.254 2.161-6.873 2.256-10.706h8.994c-0.197 5.305-2.421 10.098-5.942 13.602z"></path>
</symbol>

<symbol id="icon-thumb-up" viewBox="0 0 48 48">
	<title>thumb-up</title>
	<path d="M15 43.5h20.247c1.244 0 2.253-0.999 2.253-2.25 0-1.243-1.007-2.25-2.253-2.25h-2.247v-1.5h5.26c1.237 0 2.24-0.999 2.24-2.25 0-1.243-0.996-2.25-2.24-2.25h-3.76v-1.5h5.26c1.237 0 2.24-0.999 2.24-2.25 0-1.243-0.996-2.25-2.24-2.25h-3.76v-1.5h5.26c1.237 0 2.24-0.999 2.24-2.25 0-1.243-0.996-2.25-2.24-2.25h-10.81c1.801-8.25 1.277-16.5-3.45-16.5-4.306 0-1.594 6.489-3.943 10.952s-7.307 5.548-7.307 5.548h-0.75v22.5zM7.497 21h6.003v22.5h-6.003c-1.649 0-2.997-1.338-2.997-2.988v-16.524c0-1.648 1.342-2.988 2.997-2.988zM9 40.5c0.828 0 1.5-0.672 1.5-1.5s-0.672-1.5-1.5-1.5c-0.828 0-1.5 0.672-1.5 1.5s0.672 1.5 1.5 1.5v0 0z"></path>
</symbol>
<symbol id="icon-comments" viewBox="0 0 54 48">
	<title>comments</title>
	<path d="M51 42.242c0 2.133 1.22 3.98 3 4.884v0.747c-0.498 0.068-1.007 0.104-1.523 0.104-3.188 0-6.063-1.337-8.096-3.481-1.229 0.327-2.531 0.504-3.88 0.504-7.456 0-13.5-5.373-13.5-12s6.044-12 13.5-12c7.456 0 13.5 5.373 13.5 12 0 2.594-0.926 4.996-2.501 6.959-0.32 0.695-0.499 1.468-0.499 2.283zM10.813 10.368c-3.104 2.522-4.813 5.765-4.813 9.132 0 1.889 0.524 3.721 1.559 5.445 1.067 1.777 2.671 3.402 4.64 4.699 1.423 0.937 2.38 2.435 2.633 4.12 0.084 0.562 0.137 1.129 0.158 1.693 0.35-0.29 0.691-0.602 1.026-0.936 1.132-1.132 2.662-1.757 4.242-1.757 0.252 0 0.504 0.016 0.757 0.048 0.982 0.125 1.985 0.188 2.981 0.188v6c-1.272-0-2.52-0.081-3.738-0.236-5.155 5.155-11.309 6.080-17.258 6.215v-1.262c3.213-1.574 6-4.441 6-7.717 0-0.457-0.036-0.906-0.101-1.345-5.428-3.575-8.899-9.035-8.899-15.155 0-10.77 10.745-19.5 24-19.5 13.053 0 23.671 8.466 23.992 19.009-1.926-0.859-4.024-1.379-6.2-1.527-0.54-2.628-2.128-5.101-4.606-7.114-1.656-1.345-3.605-2.409-5.795-3.161-2.33-0.801-4.817-1.207-7.392-1.207s-5.062 0.406-7.392 1.207c-2.19 0.753-4.139 1.816-5.795 3.161z"></path>
</symbol>

<symbol id="icon-verified" viewBox="0 0 24 24">
	<title>verified</title>
	<path d="M9.984 17.016l8.016-8.016-1.406-1.406-6.609 6.563-2.578-2.578-1.406 1.406zM12 0.984l9 4.031v6c0 5.531-3.844 10.734-9 12-5.156-1.266-9-6.469-9-12v-6z"></path>
</symbol>


<symbol id="icon-language" viewBox="0 0 24 24">
	<title>language</title>
	<path d="M16.359 14.016h3.375c0.141-0.656 0.281-1.313 0.281-2.016s-0.141-1.359-0.281-2.016h-3.375c0.094 0.656 0.141 1.313 0.141 2.016s-0.047 1.359-0.141 2.016zM14.578 19.547c1.828-0.609 3.422-1.922 4.359-3.563h-2.953c-0.328 1.266-0.797 2.438-1.406 3.563zM14.344 14.016c0.094-0.656 0.141-1.313 0.141-2.016s-0.047-1.359-0.141-2.016h-4.688c-0.094 0.656-0.141 1.313-0.141 2.016s0.047 1.359 0.141 2.016h4.688zM12 19.969c0.844-1.219 1.5-2.531 1.922-3.984h-3.844c0.422 1.453 1.078 2.766 1.922 3.984zM8.016 8.016c0.328-1.266 0.797-2.438 1.406-3.563-1.828 0.609-3.422 1.922-4.359 3.563h2.953zM5.063 15.984c0.938 1.641 2.531 2.953 4.359 3.563-0.609-1.125-1.078-2.297-1.406-3.563h-2.953zM4.266 14.016h3.375c-0.094-0.656-0.141-1.313-0.141-2.016s0.047-1.359 0.141-2.016h-3.375c-0.141 0.656-0.281 1.313-0.281 2.016s0.141 1.359 0.281 2.016zM12 4.031c-0.844 1.219-1.5 2.531-1.922 3.984h3.844c-0.422-1.453-1.078-2.766-1.922-3.984zM18.938 8.016c-0.938-1.641-2.531-2.953-4.359-3.563 0.609 1.125 1.078 2.297 1.406 3.563h2.953zM12 2.016c5.531 0 9.984 4.453 9.984 9.984s-4.453 9.984-9.984 9.984-9.984-4.453-9.984-9.984 4.453-9.984 9.984-9.984z"></path>
</symbol>

<symbol id="icon-handshake-o" viewBox="0 0 36 24">
	<title>handshake-o</title>
	<path d="M3 18c1.313 0 1.313-2 0-2s-1.313 2 0 2zM26.016 17.094c-1.234-1.609-2.438-3.25-3.844-4.719l-1.953 2.188c-1.719 1.953-4.797 1.906-6.469-0.094-1.188-1.437-1.188-3.5 0.031-4.922l2.766-3.219c-0.969-0.5-2.141-0.328-3.187-0.328-0.922 0-1.813 0.375-2.469 1.031l-2.469 2.469h-2.422v8.5c0.688 0 1.312-0.094 1.859 0.438l4.641 4.562c0.953 0.922 2.187 1.734 3.547 1.734 0.703 0 1.453-0.234 1.953-0.734 1.172 0.406 2.531-0.25 2.891-1.453 0.75 0.063 1.437-0.172 1.984-0.688 0.359-0.328 0.828-0.984 0.781-1.5 0.141 0.141 0.484 0.156 0.672 0.156 1.859 0 2.828-1.953 1.687-3.422zM28.5 18h1.5v-8h-1.453l-2.453-2.812c-0.656-0.75-1.641-1.188-2.641-1.188h-2.609c-0.875 0-1.719 0.391-2.281 1.047l-3.266 3.797c-0.578 0.688-0.578 1.656-0.016 2.344 0.891 1.062 2.531 1.078 3.453 0.047l3.016-3.406c0.719-0.797 2.031-0.047 1.703 0.969 0.594 0.688 1.234 1.359 1.813 2.047 0.781 0.969 1.531 1.984 2.297 2.969 0.484 0.625 0.844 1.375 0.938 2.188zM33 18c1.313 0 1.313-2 0-2s-1.313 2 0 2zM36 9v10c0 0.547-0.453 1-1 1h-6.781c-0.562 1.359-1.797 2.266-3.234 2.469-0.672 0.984-1.703 1.734-2.859 1.984-0.859 1.094-2.25 1.75-3.641 1.656-2.578 1.453-5.484 0.187-7.406-1.703l-4.484-4.406h-5.594c-0.547 0-1-0.453-1-1v-10.5c0-0.547 0.453-1 1-1h6.578c1.813-1.813 3.062-3.5 5.781-3.5h1.828c1.016 0 2 0.313 2.828 0.875 0.828-0.562 1.813-0.875 2.828-0.875h2.609c2.969 0 4.203 1.937 6 4h5.547c0.547 0 1 0.453 1 1z"></path>
</symbol>


<symbol id="paint-underline" viewBox="0 0 2719 40">
	<title>paint-brush-1</title>
	<path d="M752.87 7.652v-4.087l-204.261-0.87 140.087 7.304-7.043-1.304zM688.696 10l15.217 3.565 1.652-2.696zM1095.478 2.261v3.652l513.043 1.739 1.652-3.13 540.174 9.565v3.304l-1436.261-1.043-10.174-2.261-1.652 0.87-639.739-5.13v-5.652l53.913-3.304c-15.739 0-32.87 0-51.478-0.696-4.012-0.153-8.723-0.24-13.455-0.24-11.304 0-22.491 0.498-33.541 1.473l1.431-0.102c-11.826 1.217-18.261 3.826-19.391 7.739s7.913 10.435 27.043 19.565c10.335 5.194 22.414 8.597 35.188 9.463l0.29 0.016c14.262 1.291 30.849 2.027 47.608 2.027 5.275 0 10.532-0.073 15.772-0.218l-0.771 0.017c16.87 0 25.652-0.522 26.087-0.609s-1.13 0-5.043-0.522c-0.343 0.019-0.743 0.030-1.147 0.030-2.003 0-3.945-0.265-5.791-0.761l0.156 0.036c6.705-0.958 14.591-1.585 22.593-1.736l0.19-0.003c14.609-0.957 23.043-1.304 25.304-1.13s2 0.522-0.783 1.13l-10.957 2c-2.493 0.213-4.795 0.769-6.947 1.623l0.165-0.058 131.652-4.435c5.652 0 10.957 0 16 0s10.435 0 16.087 0v-1.304h40.522l-38.87 2.609q72.522 1.826 131.652-0.87t106.348-1.391q30.348 0.957 71.739 0l86.087-1.652q44.783-0.87 85.217-2c27.043-0.783 49.478-1.304 67.565-1.652l78.261-1.13q53.217-0.696 117.304-1.13l133.565-0.87q69.13 0 129.043 0c40 0 74.261 0 102.957 0s46.957 0 54.957 0c13.565 0.87 23.652 1.304 30.435 1.304h15.13c3.365-0.214 6.489-0.679 9.521-1.381l-0.391 0.076c2.783-0.609 7.043-1.217 12.696-1.826 2.7-0.368 5.821-0.578 8.991-0.578 1.579 0 3.145 0.052 4.698 0.155l-0.211-0.011q3.391 0 7.565 1.304c2.783 0.609 7.043 1.217 12.696 1.826 4.033 0.301 8.736 0.473 13.478 0.473s9.446-0.172 14.102-0.509l-0.624 0.036c17.391-0.87 30.174-1.391 39.739-1.565s18.261 0 26.087 0l24.522 1.13c8.696 0.522 20.522 1.043 36.261 1.652 11.217 0 32.348 0.609 63.304 0.87l108.087 1.391 131.652 0.87q70.087 0.522 134.261 0.696l115.565 0.435h76.783q35.478 0 82.696 0.87l94.522 1.826c31.478 0.609 61.391 1.043 89.478 1.391s51.217 0 69.565-0.435c-1.111-2.089-2.253-4.641-3.238-7.27l-0.154-0.469c-1.388-3.705-2.793-6.771-4.38-9.724l0.206 0.42c-1.848-3.302-3.805-6.146-5.992-8.794l0.079 0.099c-2.047-2.547-4.271-4.799-6.704-6.807l-0.079-0.063zM1966.435 9.478l-28.696-3.565 30.348 2.261zM2440.696 5.913l-43.478-1.826h45.565z"></path>
</symbol>

<symbol id="icon-branding" viewBox="0 0 48 48">
<title>branding</title>
<path d="M46.987 12.499h-4.177c-0.576 0-1.044 0.468-1.044 1.044v1.042l-0.723-0.002c-4.83-0.015-9.486-0.033-13.653 1.238l7.803-7.803c0.093-0.093 0.163-0.199 0.214-0.312 0.635 0.391 1.382 0.617 2.182 0.617 2.303 0 4.177-1.873 4.177-4.177s-1.873-4.177-4.177-4.177c-2.303 0-4.177 1.873-4.177 4.177 0 0.799 0.226 1.546 0.617 2.182-0.113 0.050-0.219 0.121-0.312 0.214l-12.294 12.294c0.036 0.010 0.072 0.021 0.108 0.032-0.437 0.351-0.865 0.731-1.282 1.142l-0.206 0.206c-0.412 0.419-0.793 0.848-1.145 1.287-0.012-0.036-0.023-0.072-0.032-0.109l-12.296 12.296c-0.092 0.092-0.162 0.197-0.212 0.309-0.635-0.39-1.382-0.616-2.181-0.616-2.303 0-4.177 1.873-4.177 4.177s1.873 4.177 4.177 4.177c2.303 0 4.177-1.873 4.177-4.177 0-0.799-0.226-1.546-0.616-2.181 0.112-0.050 0.218-0.12 0.309-0.212l7.807-7.807c-1.273 4.171-1.258 8.831-1.24 13.655l0.002 0.723h-1.042c-0.576 0-1.044 0.468-1.044 1.044v4.177c0 0.576 0.468 1.044 1.044 1.044h4.177c0.576 0 1.044-0.468 1.044-1.044v-4.177c0-0.576-0.468-1.044-1.044-1.044h-1.047l-0.002-0.731c-0.027-7.092-0.047-13.297 3.754-18.108-0.039-0.008-0.077-0.017-0.114-0.027l1.177-1.177c0.034-0.034 0.067-0.069 0.101-0.103s0.069-0.067 0.103-0.101l1.177-1.177c0.010 0.038 0.019 0.076 0.027 0.114 4.811-3.801 11.016-3.777 18.108-3.755l0.731 0.002v1.047c0 0.576 0.468 1.044 1.044 1.044h4.177c0.576 0 1.044-0.468 1.044-1.044v-4.177c-0-0.576-0.468-1.044-1.044-1.044zM37.59 2.057c1.151 0 2.088 0.938 2.088 2.088s-0.938 2.088-2.088 2.088c-1.151 0-2.088-0.938-2.088-2.088s0.938-2.088 2.088-2.088zM4.177 39.647c-1.151 0-2.088-0.938-2.088-2.088s0.938-2.088 2.088-2.088c1.151 0 2.088 0.938 2.088 2.088s-0.938 2.088-2.088 2.088zM16.707 45.912h-2.088v-2.088h2.088v2.088zM45.943 16.675h-2.088v-2.088h2.088v2.088zM21.723 21.488c0.391-0.384 0.793-0.737 1.205-1.063 0.029 0.138 0.044 0.28 0.044 0.426 0 1.153-0.935 2.088-2.088 2.088-0.146 0-0.289-0.015-0.426-0.044 0.325-0.412 0.679-0.813 1.063-1.204l0.204-0.204zM20.044 20.215l-1.178 1.178c-0.046-0.172-0.071-0.354-0.071-0.541 0-1.153 0.935-2.088 2.088-2.088 0.187 0 0.368 0.025 0.541 0.071l-1.174 1.174c-0.035 0.035-0.071 0.069-0.106 0.104-0.034 0.034-0.067 0.068-0.1 0.102z"></path>
</symbol>
<symbol id="icon-connection" viewBox="0 0 48 48">
<title>connection</title>
<path d="M44.337 0c-0.915 0-1.792 0.341-2.469 0.961-0.673 0.616-1.091 1.451-1.176 2.353l-0.045 0.476-10.574 2.622-0.221-0.539c-0.703-1.714-1.887-3.176-3.423-4.228-1.572-1.076-3.412-1.645-5.32-1.645-1.781 0-3.518 0.501-5.021 1.448-1.463 0.922-2.647 2.225-3.423 3.768l-0.261 0.519-5.071-1.665-0.009-0.479c-0.019-0.961-0.408-1.864-1.097-2.54s-1.6-1.051-2.564-1.051c-2.020 0-3.663 1.643-3.663 3.663s1.643 3.663 3.663 3.663c1.135 0 2.189-0.517 2.89-1.418l0.292-0.375 5.069 1.665-0.103 0.577c-0.098 0.548-0.148 1.111-0.148 1.671 0 2.049 0.651 4.004 1.884 5.654l0.35 0.468-5.237 5.238-0.431-0.207c-0.495-0.237-1.025-0.358-1.577-0.358-2.020 0-3.663 1.643-3.663 3.663s1.643 3.663 3.663 3.663 3.663-1.643 3.663-3.663c0-0.552-0.12-1.082-0.358-1.577l-0.207-0.431 5.236-5.236 0.468 0.351c0.5 0.375 1.040 0.701 1.607 0.97l0.385 0.183v8.261l-5.114 4.091c-1.338 1.070-1.754 2.96-0.99 4.494l5.386 10.965c0.625 1.249 1.88 2.025 3.276 2.025l16.342 0c1.634 0 3.046-1.055 3.514-2.625 0.844-2.832 2.26-8.635 2.26-15.689 0-2.020-1.643-3.663-3.663-3.663-0.466 0-0.919 0.087-1.349 0.257l-0.701 0.279-0.199-0.728c-0.434-1.589-1.887-2.7-3.534-2.7-0.466 0-0.919 0.087-1.349 0.257l-0.701 0.279-0.199-0.728c-0.434-1.589-1.887-2.7-3.534-2.7-0.417 0-0.828 0.071-1.22 0.21l-0.9 0.319v-2.606l0.385-0.183c1.484-0.705 2.766-1.793 3.707-3.149l0.333-0.48 5.686 2.843-0.058 0.473c-0.020 0.159-0.029 0.307-0.029 0.453 0 2.020 1.643 3.663 3.663 3.663s3.663-1.643 3.663-3.663-1.643-3.663-3.663-3.663c-0.95 0-1.852 0.365-2.54 1.028l-0.343 0.331-5.688-2.844 0.185-0.555c0.32-0.962 0.482-1.962 0.482-2.972 0-0.318-0.016-0.64-0.048-0.956l-0.059-0.582 10.573-2.622 0.263 0.396c0.683 1.029 1.825 1.644 3.054 1.644 2.020 0 3.663-1.643 3.663-3.663s-1.643-3.663-3.663-3.663zM3.663 5.783c-1.169 0-2.12-0.951-2.12-2.12s0.951-2.12 2.12-2.12 2.12 0.951 2.12 2.12-0.951 2.12-2.12 2.12zM6.651 26.024c-1.169 0-2.12-0.951-2.12-2.12s0.951-2.12 2.12-2.12 2.12 0.951 2.12 2.12-0.951 2.12-2.12 2.12zM26.892 21.783c1.169 0 2.12 0.951 2.12 2.12v5.783c0 0.425 0.346 0.771 0.771 0.771s0.771-0.346 0.771-0.771v-2.892c0-1.169 0.951-2.12 2.12-2.12s2.12 0.951 2.12 2.12v2.892c0 0.425 0.346 0.771 0.771 0.771s0.771-0.346 0.771-0.771c0-1.169 0.951-2.12 2.12-2.12s2.12 0.951 2.12 2.12c0 7.115-1.536 13.034-2.196 15.248-0.272 0.911-1.090 1.523-2.036 1.523l-16.342-0c-0.806 0-1.532-0.447-1.894-1.167l-0.001-0.003-0.001-0.003-5.384-10.96c-0.445-0.889-0.204-1.985 0.572-2.605l4.151-3.321v4.179c0 0.425 0.346 0.771 0.771 0.771s0.771-0.346 0.771-0.771v-23.132c0-1.169 0.951-2.12 2.12-2.12s2.12 0.951 2.12 2.12v20.241c0 0.425 0.346 0.771 0.771 0.771s0.771-0.346 0.771-0.771v-5.783c0-1.169 0.951-2.12 2.12-2.12zM25.851 15.768l-1.080 0.812v-7.135c0-2.020-1.643-3.663-3.663-3.663s-3.663 1.643-3.663 3.663v7.135l-1.080-0.812c-1.979-1.488-3.161-3.852-3.161-6.323 0-4.358 3.546-7.904 7.904-7.904s7.904 3.546 7.904 7.904c0 2.471-1.182 4.834-3.161 6.323zM38.458 16c1.169 0 2.12 0.951 2.12 2.12s-0.951 2.12-2.12 2.12-2.12-0.951-2.12-2.12 0.951-2.12 2.12-2.12zM44.337 5.783c-1.169 0-2.12-0.951-2.12-2.12s0.951-2.12 2.12-2.12 2.12 0.951 2.12 2.12-0.951 2.12-2.12 2.12z"></path>
</symbol>
<symbol id="icon-goals" viewBox="0 0 48 48">
<title>goals</title>
<path d="M12.041 10.137c0.31 0.31 0.31 0.813 0 1.124l-3.759 3.759c-0.149 0.149-0.351 0.233-0.562 0.233-0.002 0-0.005 0-0.007 0-0.213-0.002-0.417-0.089-0.565-0.243l-1.477-1.529c-0.305-0.316-0.296-0.819 0.020-1.124s0.819-0.296 1.123 0.020l0.915 0.948 3.187-3.187c0.31-0.31 0.814-0.31 1.124-0zM10.917 19.306l-3.187 3.187-0.915-0.947c-0.304-0.316-0.808-0.325-1.123-0.020s-0.325 0.808-0.020 1.124l1.477 1.529c0.148 0.153 0.352 0.241 0.565 0.243 0.002 0 0.005 0 0.007 0 0.211 0 0.413-0.084 0.562-0.233l3.759-3.759c0.31-0.31 0.31-0.813 0-1.124s-0.813-0.31-1.124 0zM10.917 28.475l-3.187 3.187-0.915-0.947c-0.305-0.316-0.808-0.325-1.123-0.020s-0.325 0.808-0.020 1.123l1.477 1.529c0.148 0.153 0.352 0.241 0.565 0.243 0.002 0 0.005 0 0.007 0 0.211 0 0.413-0.084 0.562-0.233l3.759-3.759c0.31-0.311 0.31-0.813 0-1.124s-0.814-0.31-1.124 0zM14.262 14.605h7.441c0.439 0 0.795-0.356 0.795-0.795s-0.356-0.795-0.795-0.795h-7.441c-0.439 0-0.795 0.356-0.795 0.795s0.356 0.795 0.795 0.795zM42.346 33.366c-0.426-0.104-0.856 0.157-0.96 0.584-0.158 0.65-0.361 1.296-0.602 1.92-0.252 0.653-0.552 1.295-0.889 1.908-0.212 0.384-0.072 0.868 0.312 1.080 0.122 0.067 0.253 0.099 0.383 0.099 0.28 0 0.552-0.148 0.697-0.411 0.372-0.676 0.702-1.383 0.98-2.103 0.266-0.688 0.489-1.4 0.664-2.117 0.104-0.426-0.158-0.856-0.584-0.96zM43.057 28.363c-0.004 0-0.008 0-0.012 0-0.439 0.006-0.789 0.367-0.783 0.806 0.010 0.697-0.026 1.025-0.117 1.763-0.053 0.436 0.256 0.832 0.692 0.885 0.033 0.004 0.066 0.006 0.098 0.006 0.396 0 0.738-0.295 0.788-0.698 0.095-0.774 0.14-1.181 0.128-1.979-0.006-0.435-0.361-0.783-0.794-0.783zM25.783 44.783c-0.858-0.031-1.718-0.134-2.557-0.306-0.429-0.087-0.85 0.189-0.938 0.619s0.189 0.85 0.619 0.938c0.925 0.19 1.873 0.303 2.818 0.338 0.010 0 0.020 0 0.029 0 0.426 0 0.778-0.337 0.794-0.766 0.016-0.439-0.326-0.807-0.765-0.823zM38.060 39.942c-0.451 0.482-0.937 0.941-1.445 1.363-0.493 0.41-1.017 0.793-1.557 1.139-0.562 0.361-1.153 0.688-1.756 0.973-0.762 0.36-1.558 0.66-2.367 0.891-0.74 0.212-1.504 0.37-2.271 0.47-0.435 0.057-0.742 0.456-0.685 0.891 0.052 0.4 0.394 0.692 0.787 0.692 0.034 0 0.069-0.002 0.104-0.007 0.845-0.11 1.687-0.284 2.502-0.518 0.891-0.255 1.769-0.585 2.609-0.982 0.664-0.314 1.315-0.674 1.934-1.071 0.595-0.381 1.171-0.803 1.715-1.254 0.559-0.464 1.095-0.969 1.591-1.5 0.3-0.321 0.283-0.824-0.038-1.123s-0.823-0.283-1.123 0.038zM47.767 13.163l-4.329 4.329c-0.15 0.15-0.353 0.233-0.562 0.233-0.052 0-0.104-0.005-0.156-0.015l-2.914-0.583-2.765 2.779c2.227 2.481 3.584 5.757 3.584 9.345 0 7.722-6.283 14.005-14.005 14.005-3.459 0-6.629-1.262-9.076-3.348h-16.749c-0.439 0-0.795-0.356-0.795-0.795v-32.727c0-0.439 0.356-0.795 0.795-0.795h6.877v-0.806c0-0.439 0.356-0.795 0.795-0.795h1.909v-1.603c0-0.439 0.356-0.795 0.795-0.795h5.076c0.439 0 0.795 0.356 0.795 0.795v1.603h1.909c0.439 0 0.795 0.356 0.795 0.795v0.806h6.877c0.439 0 0.795 0.356 0.795 0.795v8.883c3.252 0.183 6.21 1.48 8.5 3.516l2.809-2.823-0.562-2.812c-0.052-0.261 0.030-0.53 0.217-0.718l4.329-4.329c0.207-0.207 0.512-0.284 0.792-0.199s0.491 0.317 0.549 0.605l0.552 2.761 2.761 0.552c0.287 0.057 0.52 0.268 0.605 0.549s0.009 0.585-0.199 0.792zM11.964 3.991h3.487v-0.808h-3.487v0.808zM9.261 6.792h8.893v-1.211h-8.893v1.211zM15.956 38.319c-2.082-2.445-3.341-5.612-3.341-9.067 0-2.001 0.423-3.905 1.182-5.629-0.199-0.144-0.33-0.378-0.33-0.643 0-0.439 0.356-0.795 0.795-0.795h0.271c2.308-3.932 6.479-6.644 11.292-6.915v-8.089h-6.082v0.406c0 0.439-0.356 0.795-0.795 0.795h-10.482c-0.439 0-0.795-0.356-0.795-0.795v-0.406h-6.082v31.138h14.367zM35.918 21.034l-2.050 2.060c1.413 1.661 2.267 3.811 2.267 6.157 0 5.247-4.268 9.515-9.515 9.515s-9.515-4.268-9.515-9.515c0-5.246 4.268-9.515 9.515-9.515 2.329 0 4.466 0.842 6.122 2.237l2.050-2.061c-2.185-1.915-5.045-3.077-8.172-3.077-6.846 0-12.416 5.569-12.416 12.415s5.57 12.415 12.416 12.415 12.415-5.569 12.415-12.415c-0-3.148-1.179-6.026-3.117-8.217zM26.058 28.689l2.806-2.82c-0.643-0.428-1.415-0.679-2.244-0.679-2.239 0-4.060 1.822-4.060 4.060s1.821 4.060 4.060 4.060c2.239 0 4.060-1.821 4.060-4.060 0-0.836-0.254-1.614-0.689-2.261l-2.809 2.823c-0.155 0.155-0.358 0.233-0.562 0.233s-0.407-0.078-0.562-0.233c-0.311-0.31-0.311-0.813 0-1.124zM45.594 13.090l-1.824-0.365c-0.315-0.063-0.56-0.309-0.623-0.623l-0.365-1.824-2.979 2.979 0.469 2.344 2.344 0.469 2.979-2.979z"></path>
</symbol>
<symbol id="icon-growth" viewBox="0 0 48 48">
<title>growth</title>
<path d="M48 35.065c-0.001-0.288-0.18-0.554-0.45-0.659l-5.461-2.111v-7.955c0-0.388-0.315-0.703-0.703-0.703s-0.703 0.315-0.703 0.703v5.569c-7.236 0.030-14.251 0.029-21.419-0.003-0.387-0.006-0.705 0.312-0.706 0.7s0.312 0.705 0.7 0.706c3.702 0.016 7.362 0.025 11.034 0.025 3.44 0 6.89-0.007 10.392-0.022v0.758h-33.342v-0.754c1.311 0.012 2.61 0.018 3.909 0.018 1.533 0 3.065-0.008 4.619-0.024 0.388-0.004 0.7-0.322 0.696-0.711s-0.321-0.696-0.71-0.696c-2.865 0.030-5.658 0.032-8.513 0.006v-7.702c0-0.388-0.315-0.703-0.703-0.703s-0.703 0.315-0.703 0.703v10.074l-5.486 2.121c-0.27 0.104-0.45 0.372-0.45 0.661v2.142c0 1.308 1.064 2.373 2.373 2.373h43.255c1.308 0 2.373-1.064 2.373-2.373v-2.141c-0-0.001-0-0.002-0-0.003zM6.745 33.48h34.511l2.273 0.879h-39.057l2.273-0.879zM46.594 37.209c0 0.533-0.434 0.966-0.966 0.966h-34.848v-0.758c0-0.388-0.315-0.703-0.703-0.703s-0.703 0.315-0.703 0.703v0.758h-1.115v-0.758c0-0.388-0.315-0.703-0.703-0.703s-0.703 0.315-0.703 0.703v0.758h-1.115v-0.758c0-0.388-0.315-0.703-0.703-0.703s-0.703 0.315-0.703 0.703v0.758h-1.958c-0.533 0-0.966-0.434-0.966-0.966v-1.444h45.187v1.444zM6.638 19.777c0.388 0 0.703-0.315 0.703-0.703v-5.299h33.342v0.043l-6.553 6.553-2.021-2.021c-0.275-0.275-0.72-0.275-0.994 0l-4.756 4.756-2-2c-0.132-0.132-0.311-0.206-0.497-0.206s-0.365 0.074-0.497 0.206l-5.453 5.453c-0.275 0.275-0.275 0.72 0 0.994 0.137 0.137 0.317 0.206 0.497 0.206s0.36-0.069 0.497-0.206l4.956-4.956 2 2c0.275 0.274 0.72 0.274 0.994 0l4.756-4.756 2.021 2.021c0.275 0.274 0.72 0.274 0.994 0l6.055-6.055v5.387c0 0.388 0.315 0.703 0.703 0.703s0.703-0.315 0.703-0.703v-6.793l1.498-1.498c0.335 0.178 0.717 0.28 1.122 0.28 1.321 0 2.396-1.075 2.396-2.396s-1.075-2.396-2.396-2.396c-1.321 0-2.396 1.075-2.396 2.396 0 0.405 0.101 0.787 0.28 1.122l-0.504 0.504v-0.692c0-0.837-0.681-1.518-1.518-1.518h-33.118c-0.837 0-1.518 0.681-1.518 1.518v7.354c0 0.388 0.315 0.703 0.703 0.703zM44.71 9.797c0.546 0 0.99 0.444 0.99 0.99 0 0.544-0.441 0.987-0.985 0.989l0.492-0.492c0.275-0.275 0.275-0.72 0-0.994s-0.72-0.274-0.994 0l-0.492 0.492c0.003-0.543 0.445-0.985 0.989-0.985zM7.341 11.72c0-0.062 0.050-0.112 0.112-0.112h33.118c0.062 0 0.112 0.050 0.112 0.112v0.649h-33.342v-0.649zM17.147 19.898v-2.418c0-0.388-0.315-0.703-0.703-0.703h-6.563c-0.388 0-0.703 0.315-0.703 0.703v2.418c0 0.388 0.315 0.703 0.703 0.703h6.563c0.388 0 0.703-0.315 0.703-0.703zM15.741 19.195h-5.156v-1.012h5.156v1.012zM12.987 22.331c0 0.388-0.315 0.703-0.703 0.703h-2.403c-0.388 0-0.703-0.315-0.703-0.703s0.315-0.703 0.703-0.703h2.403c0.388 0 0.703 0.315 0.703 0.703zM12.987 24.693c0 0.388-0.315 0.703-0.703 0.703h-2.403c-0.388 0-0.703-0.315-0.703-0.703s0.315-0.703 0.703-0.703h2.403c0.388 0 0.703 0.315 0.703 0.703zM12.987 27.056c0 0.388-0.315 0.703-0.703 0.703h-2.403c-0.388 0-0.703-0.315-0.703-0.703s0.315-0.703 0.703-0.703h2.403c0.388 0 0.703 0.315 0.703 0.703zM23.668 26.353c0.388 0 0.703 0.315 0.703 0.703s-0.315 0.703-0.703 0.703h-1.13c-0.388 0-0.703-0.315-0.703-0.703s0.315-0.703 0.703-0.703h1.13zM28.946 26.353c0.388 0 0.703 0.315 0.703 0.703s-0.315 0.703-0.703 0.703h-1.13c-0.388 0-0.703-0.315-0.703-0.703s0.315-0.703 0.703-0.703h1.13zM34.224 26.353c0.388 0 0.703 0.315 0.703 0.703s-0.315 0.703-0.703 0.703h-1.13c-0.388 0-0.703-0.315-0.703-0.703s0.315-0.703 0.703-0.703h1.13z"></path>
</symbol>
<symbol id="icon-map" viewBox="0 0 48 48">
<title>map</title>
<path d="M30.547 9.235c0.072-0.382 0.443-0.633 0.825-0.56s0.634 0.443 0.561 0.825c-0.478 2.475 0.989 4.878 3.331 5.638 3.167 1.033 6.463-1.342 6.463-4.701 0-4.629-5.814-6.699-8.752-3.145-0.248 0.3-0.694 0.343-0.994 0.094s-0.343-0.694-0.094-0.994c1.212-1.466 2.998-2.308 4.899-2.308 3.503 0 6.353 2.85 6.353 6.353s-2.85 6.353-6.353 6.353c-3.986 0-6.994-3.648-6.239-7.555zM48 15.843v31.445c0 0.39-0.315 0.706-0.706 0.706l-42.954 0.004c-2.392 0-4.34-1.947-4.34-4.341 0-28.286-0.001-27.822 0.001-27.832-0.001-0.002-0.001-0.003 0-0.005 0-2.317 1.885-4.202 4.202-4.202h2.282c0.837 0 1.517 0.68 1.517 1.516v2.003h19.56c-3.512-6.845 1.462-14.983 9.076-15.090 7.901-0.109 12.882 8.246 9.368 15.090h1.287c0.391 0 0.706 0.316 0.706 0.706zM30.276 16.549c1.376 1.453 2.132 1.37 2.848 2.637l3.467 6.124c0.055 0.099 0.146 0.114 0.195 0.114s0.139-0.015 0.195-0.114l3.467-6.124c0.286-0.506 0.7-0.944 1.198-1.267 4.84-3.144 5.47-9.891 1.422-13.884-5.614-5.539-15.117-1.547-15.229 6.239-0.035 2.372 0.851 4.598 2.437 6.275zM1.413 40.573c0.746-0.663 1.727-1.063 2.791-1.063h2.282c0.164 0 0.105 1.714 0.105-26.375 0-0.2-0.224-0.062-2.388-0.104-1.542 0-2.791 1.254-2.791 2.791 0.004 0.214 0.002 5.916 0 24.752zM46.588 16.549h-1.457c-1.675 2.272-2.885 2.325-3.455 3.333l-3.467 6.124c-0.294 0.52-0.826 0.83-1.423 0.83s-1.129-0.311-1.424-0.83l-3.466-6.124c-0.569-1.006-1.782-1.062-3.459-3.333h-20.434v22.856c0 0.836-0.68 1.516-1.517 1.516h-2.282c-3.823 0-3.642 5.665 0.137 5.665l42.248-0.004v-30.033zM35.421 29.684h1.107c0.39 0 0.706-0.316 0.706-0.706s-0.316-0.706-0.706-0.706h-1.107c-0.39 0-0.706 0.316-0.706 0.706s0.316 0.706 0.706 0.706zM39.021 34.389h-9.056c-0.39 0-0.706 0.316-0.706 0.706s0.316 0.706 0.706 0.706h9.056c1.349 0 2.447 1.098 2.447 2.447s-1.098 2.447-2.447 2.447h-23.386c-0.39 0-0.706 0.316-0.706 0.706s0.316 0.706 0.706 0.706h23.386c2.128 0 3.859-1.731 3.859-3.859s-1.731-3.859-3.859-3.859zM19.588 35.8h7.554c0.39 0 0.706-0.316 0.706-0.706s-0.316-0.706-0.706-0.706h-7.554c-2.102 0-3.812-1.71-3.812-3.811v-3.717c0-2.102 1.71-3.812 3.812-3.812 1.754 0 3.529 1.285 3.529 3.742 0 1.595 1.298 2.893 2.894 2.893h6.586c0.39 0 0.706-0.316 0.706-0.706s-0.316-0.706-0.706-0.706h-6.586c-0.817 0-1.482-0.665-1.482-1.482 0-3.347-2.546-5.153-4.941-5.153-2.88 0-5.223 2.343-5.223 5.223v3.717c0 2.88 2.343 5.223 5.223 5.223z"></path>
</symbol>
<symbol id="icon-marketing" viewBox="0 0 48 48">
<title>marketing</title>
<path d="M47.565 22.598c-0.263-0.109-0.566-0.049-0.768 0.153l-2.11 2.11v-14.347c0-0.389-0.315-0.705-0.705-0.705h-5.413l1.965-1.965c0-0 0.001-0.001 0.001-0.001l1.893-1.893c0.406-0.406 0.629-0.945 0.629-1.519s-0.223-1.113-0.629-1.519l-2.189-2.189c-0.406-0.406-0.945-0.629-1.519-0.629s-1.113 0.223-1.519 0.629l-9.087 9.087h-21.869v-6.97c0-0.389-0.315-0.705-0.705-0.705-3.055 0-5.541 2.486-5.541 5.541v29.924c0 0.052 0.006 0.103 0.017 0.151 0.097 1.296 0.658 2.501 1.596 3.416 1.002 0.977 2.325 1.516 3.725 1.516h21.529l-4.055 4.055c-0.201 0.202-0.262 0.504-0.153 0.768s0.366 0.435 0.651 0.435h23.986c0.389 0 0.705-0.315 0.705-0.705v-23.986c0-0.285-0.172-0.542-0.435-0.651zM38.198 1.719c0.288-0.288 0.757-0.288 1.045 0l2.19 2.19c0.288 0.288 0.288 0.757 0 1.045l-1.396 1.396-3.235-3.235 1.396-1.396zM35.805 4.112l3.235 3.235-1.293 1.293-3.235-3.235 1.293-1.293zM46.591 31.166h-1.3c-0.389 0-0.705 0.315-0.705 0.705s0.315 0.705 0.705 0.705h1.3v2.123h-1.3c-0.389 0-0.705 0.315-0.705 0.705s0.315 0.705 0.705 0.705h1.3v2.123h-1.3c-0.389 0-0.705 0.315-0.705 0.705s0.315 0.705 0.705 0.705h1.3v2.123h-1.3c-0.389 0-0.705 0.315-0.705 0.705s0.315 0.705 0.705 0.705h1.3v3.36h-21.581l7.116-7.116c0.275-0.275 0.275-0.721 0-0.996-0.032-0.032-0.066-0.059-0.101-0.083-0.274-0.188-0.652-0.16-0.895 0.083l-2.855 2.855h-22.938c-2.137 0-3.857-1.668-3.925-3.801 0.004-0.134 0.014-0.267 0.031-0.398 0-0.001 0-0.002 0-0.002 0.008-0.062 0.017-0.124 0.028-0.186 0.001-0.007 0.003-0.014 0.004-0.021 0.010-0.055 0.021-0.11 0.033-0.164 0.003-0.015 0.007-0.030 0.010-0.045 0.011-0.046 0.022-0.092 0.035-0.138 0.007-0.025 0.014-0.049 0.021-0.074 0.010-0.036 0.021-0.071 0.032-0.107s0.023-0.070 0.036-0.105c0.009-0.024 0.017-0.049 0.026-0.073 0.017-0.046 0.035-0.092 0.054-0.137 0.005-0.013 0.011-0.026 0.016-0.039 0.024-0.056 0.049-0.112 0.076-0.167 0.001-0.002 0.002-0.005 0.003-0.007 0.551-1.14 1.611-1.991 2.883-2.254 0.004-0.001 0.007-0.002 0.011-0.002 0.058-0.012 0.117-0.022 0.176-0.032 0.010-0.002 0.020-0.004 0.030-0.005 0.054-0.008 0.108-0.015 0.162-0.021 0.015-0.002 0.030-0.004 0.046-0.006 0.052-0.005 0.105-0.009 0.158-0.012 0.017-0.001 0.033-0.003 0.050-0.004 0.069-0.003 0.139-0.005 0.208-0.005 0.389 0 0.705-0.315 0.705-0.705v-5.108c0-0.389-0.315-0.705-0.705-0.705s-0.705 0.315-0.705 0.705v4.448c-1.19 0.15-2.294 0.681-3.165 1.531-0.092 0.089-0.178 0.182-0.263 0.277v-26.235c0-2.038 1.484-3.737 3.428-4.072v21.233c0 0.389 0.315 0.705 0.705 0.705s0.705-0.315 0.705-0.705v-13.618h20.46l-3.895 3.895c-0.275 0.275-0.275 0.721 0 0.996s0.721 0.275 0.996 0l5.097-5.097c0-0 0-0 0-0l4.611-4.611 3.235 3.235-0.38 0.38c-0 0-0.001 0.001-0.001 0.001l-14.206 14.206-3.235-3.235 2.8-2.8c0.275-0.275 0.275-0.721 0-0.996s-0.721-0.275-0.996 0l-3.298 3.298c-0.018 0.018-0.034 0.036-0.050 0.055-0.005 0.006-0.010 0.013-0.015 0.020-0.010 0.013-0.020 0.027-0.029 0.040-0.005 0.008-0.010 0.016-0.015 0.025-0.008 0.013-0.015 0.026-0.022 0.040-0.005 0.009-0.009 0.018-0.013 0.027-0.006 0.014-0.012 0.028-0.017 0.042-0.002 0.005-0.004 0.010-0.006 0.015l-2.308 6.539c-0.012 0.035-0.021 0.071-0.028 0.107h-2.343c-0.389 0-0.705 0.315-0.705 0.705s0.315 0.705 0.705 0.705h19.511c0.389 0 0.705-0.315 0.705-0.705s-0.315-0.705-0.705-0.705h-13.998l4.297-1.517c0.004-0.001 0.007-0.003 0.010-0.004 0.017-0.006 0.033-0.013 0.049-0.021 0.006-0.003 0.013-0.006 0.019-0.009 0.017-0.008 0.033-0.018 0.050-0.028 0.005-0.003 0.011-0.006 0.016-0.009 0.017-0.011 0.033-0.023 0.050-0.035 0.004-0.003 0.008-0.006 0.012-0.009 0.020-0.016 0.039-0.033 0.057-0.051l14.498-14.498h6.118v15.051l-10.078 10.078c-0.275 0.275-0.275 0.721 0 0.996 0.017 0.017 0.035 0.033 0.054 0.048 0.129 0.105 0.287 0.158 0.445 0.158s0.316-0.053 0.445-0.158c0.018-0.015 0.036-0.031 0.054-0.048 0-0 0 0 0-0l12.394-12.394v6.216zM20.876 24.926l-2.018 0.712-1.345-1.345 0.712-2.018 2.65 2.65zM33.852 42.511c0.109 0.263 0.366 0.435 0.651 0.435h7.699c0.389 0 0.705-0.315 0.705-0.705v-7.699c0-0.285-0.172-0.542-0.435-0.651s-0.566-0.049-0.768 0.153l-7.699 7.699c-0.202 0.202-0.262 0.505-0.153 0.768zM41.498 36.242v5.294h-5.294l5.294-5.294z"></path>
</symbol>
<symbol id="icon-megaphone" viewBox="0 0 48 48">
<title>megaphone</title>
<path d="M18.031 21.351l0.809 1.117-7.552 5.47-0.809-1.117 7.552-5.47zM38.182 31.434c0.226 0.688 0.169 1.428-0.162 2.080-0.332 0.645-0.894 1.124-1.583 1.353-0.278 0.089-0.56 0.133-0.845 0.133-0.429 0-0.858-0.104-1.239-0.3-0.491-0.249-0.887-0.634-1.147-1.11l-10.584-0c-0.157 2.396-1.762 4.498-4.097 5.258-0.604 0.197-1.225 0.294-1.842 0.294-0.926 0-1.845-0.219-2.694-0.652-1.413-0.722-2.461-1.951-2.952-3.462-0.153-0.472-0.244-0.954-0.276-1.438l-3.825-0c-0.008 0.408-0.108 0.809-0.297 1.18-0.333 0.649-0.896 1.13-1.585 1.353-0.278 0.088-0.561 0.133-0.846 0.133-0.432 0-0.848-0.1-1.235-0.297-0.647-0.333-1.127-0.894-1.354-1.583l-1.49-4.595c-0.223-0.7-0.164-1.439 0.167-2.083 0.326-0.64 0.887-1.12 1.578-1.351 0.717-0.228 1.449-0.163 2.089 0.167 0.369 0.187 0.684 0.453 0.929 0.775l21.264-15.421c-0.068-0.539 0.027-1.083 0.281-1.573 0.326-0.645 0.889-1.127 1.584-1.35 0.674-0.222 1.428-0.166 2.077 0.162 0.656 0.338 1.135 0.902 1.356 1.59l6.725 20.736zM5.498 33.125l-1.494-4.606c-0.111-0.339-0.347-0.614-0.665-0.775-0.194-0.1-0.398-0.15-0.611-0.15-0.142 0-0.284 0.023-0.423 0.066-0.336 0.112-0.615 0.35-0.777 0.666-0.164 0.32-0.192 0.686-0.082 1.033l1.488 4.59c0.112 0.339 0.35 0.618 0.67 0.783 0.189 0.096 0.394 0.145 0.607 0.145 0.143 0 0.285-0.022 0.424-0.066 0.336-0.109 0.614-0.347 0.779-0.668 0.16-0.313 0.189-0.674 0.083-1.018zM21.239 33.591l-9.093-0c0.029 0.34 0.098 0.679 0.206 1.013 0.376 1.16 1.181 2.104 2.267 2.658s2.322 0.652 3.481 0.275c1.764-0.574 2.985-2.145 3.139-3.946zM26.52 32.212l-4.964-15.3-16.084 11.664 1.18 3.635 19.868 0zM32.709 32.212l-6.143-18.933-3.836 2.781 5.24 16.151 4.739 0zM36.871 31.862l-6.726-20.741c-0.109-0.34-0.347-0.618-0.671-0.785-0.189-0.096-0.395-0.146-0.607-0.146-0.141 0-0.281 0.023-0.416 0.067-0.344 0.111-0.621 0.347-0.782 0.666-0.166 0.321-0.195 0.684-0.084 1.026l6.73 20.739c0.11 0.345 0.347 0.622 0.667 0.784 0.194 0.1 0.398 0.149 0.612 0.149 0 0 0 0 0 0 0.141 0 0.282-0.022 0.416-0.065 0.338-0.112 0.619-0.351 0.783-0.67 0.162-0.319 0.19-0.685 0.078-1.025zM37.972 20.767l6.982-2.262-0.425-1.312-6.982 2.262 0.425 1.312zM37.578 23.395l7.016 2.151 0.404-1.319-7.016-2.151-0.404 1.319zM36.787 18.391l4.422-5.864-1.101-0.83-4.422 5.864 1.101 0.83zM40.622 16.556c0.226-0.074 0.353-0.32 0.278-0.55-0.073-0.23-0.318-0.353-0.547-0.281-0.23 0.077-0.355 0.322-0.281 0.552 0.076 0.226 0.322 0.353 0.551 0.278zM43.665 13.491c0.534-0.175 0.829-0.748 0.655-1.283-0.174-0.533-0.749-0.827-1.282-0.651-0.534 0.171-0.827 0.745-0.654 1.28 0.173 0.535 0.748 0.83 1.281 0.655zM35.642 11.707c0.304-0.099 0.474-0.428 0.375-0.735-0.099-0.305-0.427-0.47-0.733-0.371s-0.471 0.426-0.372 0.732c0.099 0.303 0.427 0.474 0.73 0.375zM46.64 25.752c-0.231 0.077-0.356 0.321-0.282 0.55 0.077 0.228 0.322 0.354 0.551 0.278 0.228-0.072 0.354-0.317 0.279-0.547-0.073-0.23-0.318-0.357-0.548-0.281zM47.937 20.792c-0.224-0.69-0.96-1.066-1.65-0.843-0.685 0.224-1.062 0.96-0.838 1.646 0.221 0.69 0.96 1.067 1.646 0.842 0.688-0.225 1.063-0.96 0.842-1.646zM41.179 26.565c-0.612 0.202-0.947 0.855-0.75 1.467 0.202 0.611 0.856 0.946 1.467 0.748s0.947-0.854 0.748-1.467c-0.199-0.611-0.853-0.946-1.465-0.748z"></path>
</symbol>
<symbol id="icon-phone" viewBox="0 0 43 48">
<title>phone</title>
<path d="M18.329 4.943c-4.751 1.815-4.457 1.699-4.508 1.724-0.001 0-0.001 0.001-0.002 0.001-2.957 1.252-4.42 4.644-3.265 7.669l2.168 5.679c0.153 0.399 0.619 0.577 0.998 0.379 0.322-0.168 0.467-0.55 0.338-0.889l-2.168-5.679c-0.772-2.023-0.027-4.354 1.903-5.543 0.185-0.111-0.084-0.37 4.249 10.836l2.367 6.202c4.267 11.324 4.282 10.931 4.076 10.971-2.080 0.395-4.294-0.721-5.114-2.867l-4.218-11.050c-0.153-0.4-0.619-0.577-0.999-0.379l-0 0c-0.322 0.168-0.467 0.55-0.337 0.889l4.217 11.050c0.918 2.404 3.206 3.866 5.608 3.866 1.471 0 1.955-0.328 6.444-2.039 1.156-0.442 1.738-1.74 1.297-2.897l-3.187-8.349c-0.442-1.157-1.741-1.739-2.897-1.297l-3.221 1.229c-0.226 0.087-0.48-0.028-0.566-0.254l-1.875-4.911c-0.087-0.226 0.028-0.481 0.254-0.566l3.227-1.232c1.144-0.437 1.738-1.723 1.293-2.889l-3.192-8.363c-0.44-1.155-1.732-1.734-2.889-1.292zM22.516 25.814l3.293-1.256c0.42-0.16 0.891 0.051 1.051 0.47 3.32 8.754 3.24 8.355 3.24 8.639 0 0.328-0.199 0.637-0.524 0.761l-3.293 1.256c-0.188 0.072-0.398-0.022-0.469-0.21l-3.508-9.191c-0.071-0.187 0.023-0.398 0.21-0.469zM19.458 6.296c0.564 0.252 0.252 0.229 3.615 8.811 0.161 0.422-0.053 0.884-0.466 1.042l-3.298 1.259c-0.187 0.072-0.398-0.023-0.469-0.21l-3.509-9.191c-0.072-0.187 0.023-0.398 0.21-0.469 3.257-1.164 3.384-1.479 3.917-1.242zM22.035 0.716c0-0.415 0.352-0.742 0.766-0.714 5.206 0.347 10.038 2.557 13.738 6.309 3.087 3.129 5.087 7.033 5.826 11.268 0.077 0.439-0.259 0.842-0.705 0.842 0.040 0.016-0.6 0.010-0.706-0.595-0.69-3.95-2.556-7.591-5.434-10.51-3.451-3.5-7.959-5.56-12.814-5.886-0.377-0.025-0.671-0.336-0.671-0.713zM41.962 20.041c-0 0-0 0-0 0-0.003-0.001-0.003-0.002 0 0zM20.414 0.734v0 0 0zM15.091 41.706c-0.524-0.16-1.089 0.018-1.408 0.443-1.429 1.91-3.323 3.394-5.628 4.412-1.686 0.744-3.551 1.226-5.544 1.431-1.417 0.143-2.014-1.749-0.779-2.446 2.477-1.394 4.708-3.57 6.286-6.124 0.343-0.557 0.228-1.263-0.274-1.678-9.549-7.902-10.498-22.339-1.555-31.402 3.658-3.707 8.382-5.916 13.45-6.321 0.417-0.033 0.775 0.295 0.775 0.714 0 0.375-0.289 0.683-0.662 0.713-4.725 0.378-9.132 2.439-12.544 5.898-8.373 8.485-7.434 21.945 1.448 29.297 1.041 0.861 1.29 2.379 0.58 3.53-1.597 2.587-3.822 4.817-6.307 6.33 3.018-0.401 6.947-1.652 9.609-5.211 0.679-0.906 1.873-1.29 2.972-0.954 12.966 3.971 26.086-6.008 25.738-19.565-0.010-0.402 0.313-0.732 0.714-0.732 0.043 0.021 0.707 0.337 0.716 0.701 0.362 14.547-13.696 25.215-27.587 20.964z"></path>
</symbol>
<symbol id="icon-website" viewBox="0 0 48 48">
<path d="M47.584 4.548l-1.77 0.902c0.131 0.258 0.286 0.854 0.141 1.032-0.005 0.004-0.625 0.678-4.144-0.409-2.686-0.833-4.894-0.685-6.561 0.436-1.177 0.791-1.837 1.911-2.21 2.864l-0.773-0.761-0.106-0.088c-5.656-4.168-10.855-6.376-15.821-1.41l-12.147 12.145c-5.591 5.596-5.591 14.693 0 20.286 5.593 5.591 14.692 5.591 20.284-0.004l11.445-11.441c5.079-5.081 3.491-11.088-0.898-16.778l-0.041-0.055-0.346-0.335c0.152-0.681 0.581-2.007 1.721-2.774 1.144-0.768 2.781-0.831 4.865-0.185 3.288 1.018 5.275 0.951 6.251-0.214 1.057-1.258 0.21-3.016 0.109-3.212zM23.069 38.138c-4.816 4.816-12.653 4.816-17.471 0s-4.816-12.655 0-17.471l5.203-5.203c2.162 4.41 4.804 8.192 7.862 11.247 3.579 3.579 7.045 5.478 9.382 6.452l-4.975 4.975zM34.515 26.696l-4.301 4.303c-3.618-1.288-6.944-3.434-9.897-6.387v-0.004c-3.967-3.964-6.353-8.457-7.537-11.122l4.966-4.964c4.26-4.26 8.312-1.984 13.183 1.567l2.564 2.504c3.734 4.894 5.381 9.742 1.022 14.102z"></path>
<path d="M26.182 12.886l-4.47 4.467c-1.29 1.29-1.29 3.387-0.002 4.677 1.287 1.287 3.385 1.283 4.671-0.004l4.47-4.47c1.287-1.29 1.288-3.387 0-4.67-1.287-1.29-3.383-1.29-4.67 0zM29.447 16.149l-4.47 4.47c-0.514 0.512-1.348 0.515-1.86 0.004-0.514-0.517-0.514-1.352 0-1.865l4.468-4.47c0.515-0.512 1.35-0.512 1.862 0 0.514 0.515 0.512 1.348 0 1.862z"></path>
</symbol>

<symbol id="icon-development" viewBox="0 0 48 48">
<title>coding</title>
<path d="M29.928 6.478l-1.627-0.446c-0.209-0.070-0.416-0.048-0.616 0.066s-0.337 0.284-0.407 0.512l-9.784 33.863c-0.070 0.227-0.048 0.442 0.066 0.643s0.284 0.337 0.512 0.407l1.626 0.446c0.21 0.070 0.415 0.048 0.616-0.065s0.337-0.284 0.407-0.511l9.784-33.863c0.070-0.227 0.048-0.442-0.066-0.643s-0.284-0.337-0.511-0.406z"></path>
<path d="M15.266 13.088c0-0.227-0.088-0.429-0.262-0.603l-1.312-1.312c-0.175-0.175-0.376-0.262-0.603-0.262s-0.429 0.088-0.603 0.262l-12.223 12.223c-0.175 0.175-0.262 0.376-0.262 0.603s0.088 0.428 0.262 0.603l12.223 12.223c0.175 0.175 0.376 0.262 0.603 0.262s0.429-0.087 0.603-0.262l1.312-1.311c0.175-0.175 0.262-0.376 0.262-0.604s-0.088-0.428-0.262-0.603l-10.308-10.309 10.308-10.308c0.175-0.175 0.262-0.376 0.262-0.603z"></path>
<path d="M47.738 23.396l-12.223-12.223c-0.175-0.175-0.376-0.262-0.603-0.262s-0.428 0.088-0.604 0.262l-1.311 1.311c-0.175 0.175-0.262 0.376-0.262 0.603s0.087 0.429 0.262 0.603l10.309 10.308-10.309 10.309c-0.175 0.175-0.262 0.376-0.262 0.603s0.087 0.429 0.262 0.604l1.311 1.311c0.175 0.175 0.376 0.262 0.604 0.262s0.428-0.087 0.603-0.262l12.223-12.223c0.175-0.175 0.262-0.376 0.262-0.604s-0.087-0.429-0.262-0.603z"></path>
</symbol>

<symbol id="icon-copywriting" viewBox="0 0 48 48">
<title>copywriting</title>
<path d="M41.333 0h-34.667c-3.68 0.004-6.662 2.986-6.667 6.667v34.667c0.004 3.68 2.986 6.662 6.667 6.667h34.667c3.68-0.004 6.662-2.986 6.667-6.667v-34.667c-0.004-3.68-2.986-6.662-6.667-6.667zM45.333 41.333c-0.002 2.208-1.792 3.998-4 4h-34.667c-2.208-0.002-3.998-1.792-4-4v-34.667c0.002-2.208 1.792-3.998 4-4h34.667c2.208 0.002 3.998 1.792 4 4z"></path>
<path d="M33.333 13.333h-18.667c-0.736 0-1.333 0.597-1.333 1.333v2.667c0 0.736 0.597 1.333 1.333 1.333s1.333-0.597 1.333-1.333v-1.333h6.667v16h-2.667c-0.736 0-1.333 0.597-1.333 1.333s0.597 1.333 1.333 1.333h8c0.736 0 1.333-0.597 1.333-1.333s-0.597-1.333-1.333-1.333h-2.667v-16h6.667v1.333c0 0.736 0.597 1.333 1.333 1.333s1.333-0.597 1.333-1.333v-2.667c0-0.736-0.597-1.333-1.333-1.333z"></path>
</symbol>

<symbol id="icon-print-production" viewBox="0 0 48 48">
<title>cmyk</title>
<path d="M41.538 10.092c-0.041-0.097-0.099-0.185-0.172-0.258l-9.6-9.599c-0.073-0.073-0.161-0.132-0.258-0.172s-0.201-0.062-0.308-0.062h-24c-0.442 0-0.8 0.358-0.8 0.8v46.4c0 0.442 0.358 0.8 0.8 0.8h33.6c0.442 0 0.8-0.358 0.8-0.8v-36.8c0-0.107-0.022-0.211-0.062-0.308zM32 2.731l6.869 6.869h-6.869v-6.869zM40 46.4h-32v-44.8h22.4v8.8c0 0.442 0.358 0.8 0.8 0.8h8.8v35.2z"></path>
<path d="M16.8 18.4h1.6c0.882 0 1.6 0.718 1.6 1.6 0 0.442 0.358 0.8 0.8 0.8s0.8-0.358 0.8-0.8c0-1.764-1.436-3.2-3.2-3.2h-1.6c-1.764 0-3.2 1.436-3.2 3.2v4.8c0 1.764 1.436 3.2 3.2 3.2h1.6c1.764 0 3.2-1.436 3.2-3.2 0-0.442-0.358-0.8-0.8-0.8s-0.8 0.358-0.8 0.8c0 0.882-0.718 1.6-1.6 1.6h-1.6c-0.882 0-1.6-0.718-1.6-1.6v-4.8c0-0.882 0.718-1.6 1.6-1.6z"></path>
<path d="M27.943 17.303c-0.143-0.356-0.516-0.56-0.894-0.488-0.377 0.073-0.649 0.402-0.649 0.786v9.6c0 0.442 0.358 0.8 0.8 0.8s0.8-0.358 0.8-0.8v-5.446l1.657 4.143c0.122 0.304 0.416 0.503 0.743 0.503s0.621-0.199 0.743-0.503l1.657-4.143v5.446c0 0.442 0.358 0.8 0.8 0.8s0.8-0.358 0.8-0.8v-9.6c0-0.384-0.272-0.713-0.649-0.786s-0.752 0.132-0.894 0.488l-2.457 6.143-2.457-6.143z"></path>
<path d="M21.244 31.334c-0.368-0.246-0.865-0.146-1.109 0.222l-2.534 3.802-2.534-3.802c-0.245-0.368-0.742-0.468-1.109-0.222s-0.467 0.742-0.222 1.109l3.066 4.598v4.558c0 0.442 0.358 0.8 0.8 0.8s0.8-0.358 0.8-0.8v-4.558l3.066-4.598c0.245-0.367 0.146-0.864-0.222-1.109z"></path>
<path d="M34.166 31.434c-0.312-0.312-0.819-0.312-1.131 0l-5.034 5.034v-4.469c0-0.442-0.358-0.8-0.8-0.8s-0.8 0.358-0.8 0.8v9.6c0 0.442 0.358 0.8 0.8 0.8s0.8-0.358 0.8-0.8v-2.869l1.046-1.046 3.956 4.447c0.158 0.178 0.377 0.268 0.598 0.268 0.189 0 0.379-0.067 0.531-0.202 0.33-0.294 0.36-0.799 0.066-1.129l-4.018-4.516 3.986-3.986c0.313-0.312 0.313-0.819 0-1.131z"></path>
</symbol>

<symbol id="icon-message-strategy" viewBox="0 0 48 48">
<title>strategy-2</title>
<path d="M3.712 16.559l5.882-5.883 5.889 5.883c0.214 0.213 0.499 0.324 0.778 0.324 0.285 0 0.564-0.111 0.778-0.324 0.428-0.428 0.428-1.129 0-1.557l-5.882-5.882 5.882-5.883c0.428-0.428 0.428-1.129 0-1.557s-1.129-0.428-1.556 0l-5.883 5.883-5.882-5.883c-0.428-0.428-1.129-0.428-1.557 0s-0.428 1.128 0 1.557l5.883 5.883-5.883 5.882c-0.428 0.428-0.428 1.129 0 1.557 0.214 0.213 0.499 0.324 0.779 0.324 0.278-0.006 0.557-0.111 0.772-0.324z"></path>
<path d="M43.455 26.651c-0.429-0.428-1.129-0.428-1.557 0l-5.882 5.882-5.883-5.882c-0.428-0.428-1.128-0.428-1.556 0s-0.428 1.128 0 1.556l5.883 5.882-5.883 5.883c-0.428 0.428-0.428 1.128 0 1.556 0.214 0.214 0.499 0.324 0.778 0.324s0.564-0.11 0.779-0.324l5.883-5.882 5.882 5.882c0.214 0.214 0.499 0.324 0.779 0.324 0.285 0 0.564-0.11 0.778-0.324 0.428-0.428 0.428-1.128 0-1.556l-5.883-5.883 5.883-5.882c0.428-0.428 0.428-1.122 0-1.556z"></path>
<path d="M38.863 1.422c-3.885 0-7.050 3.165-7.050 7.050s3.165 7.050 7.050 7.050c3.885 0 7.050-3.165 7.050-7.050s-3.159-7.050-7.050-7.050zM38.863 13.316c-2.673 0-4.845-2.173-4.845-4.844s2.172-4.845 4.845-4.845c2.672 0 4.845 2.173 4.845 4.845s-2.173 4.844-4.845 4.844z"></path>
<path d="M30.64 16.027c0-0.006 0.006-0.013 0.006-0.019 0.006-0.026 0.019-0.058 0.019-0.091 0-0.006 0-0.013 0-0.013 0.006-0.026 0.006-0.052 0.013-0.078 0-0.006 0-0.013 0-0.026 0-0.026 0.006-0.059 0.006-0.084 0-0.013 0-0.020 0-0.033 0-0.026 0-0.059-0.006-0.084 0-0.006 0-0.019 0-0.026 0-0.026-0.006-0.052-0.013-0.078 0-0.006 0-0.013 0-0.019-0.007-0.033-0.013-0.065-0.026-0.091 0-0.007-0.007-0.013-0.007-0.020-0.007-0.033-0.020-0.058-0.032-0.091v-0.006s0-0.006-0.006-0.006c-0.013-0.032-0.026-0.059-0.039-0.091 0-0.006-0.006-0.013-0.006-0.020-0.006-0.013-0.013-0.020-0.019-0.032s-0.019-0.026-0.026-0.039c-0.006-0.006-0.006-0.013-0.013-0.019-0.013-0.026-0.032-0.045-0.052-0.065-0.006-0.006-0.012-0.013-0.019-0.026-0.020-0.019-0.039-0.039-0.059-0.058-0.006-0.006-0.013-0.013-0.020-0.020-0.020-0.019-0.039-0.038-0.058-0.052-0.006-0.006-0.013-0.006-0.020-0.013-0.019-0.019-0.045-0.032-0.065-0.046-0.006-0.006-0.013-0.006-0.019-0.013-0.026-0.019-0.052-0.032-0.078-0.045-0.007 0-0.013-0.007-0.020-0.007-0.026-0.013-0.059-0.026-0.084-0.038h-0.006c-0.026-0.013-0.058-0.020-0.084-0.033-0.007 0-0.013-0.006-0.013-0.006-0.026-0.006-0.058-0.013-0.084-0.019-0.007 0-0.013 0-0.019-0.006-0.026-0.007-0.058-0.013-0.091-0.013h-0.006l-8.107-0.876c-0.603-0.065-1.148 0.37-1.213 0.979-0.065 0.603 0.37 1.148 0.979 1.213l4.274 0.461c-2.815 1.543-5.396 3.457-7.706 5.72-3.035 2.964-5.473 6.408-7.276 10.241-0.344-0.052-0.694-0.078-1.051-0.078-3.885 0-7.050 3.165-7.050 7.050s3.165 7.050 7.050 7.050c3.885 0 7.050-3.165 7.050-7.050 0-2.75-1.582-5.13-3.878-6.297 3.145-6.558 8.301-11.836 14.761-15.151l-1.952 4.864c-0.227 0.564 0.046 1.206 0.617 1.433 0.136 0.052 0.272 0.078 0.408 0.078 0.434 0 0.85-0.26 1.025-0.694l2.984-7.439c0.013-0.026 0.026-0.052 0.033-0.078zM14.438 39.31c0 2.672-2.173 4.845-4.845 4.845s-4.844-2.173-4.844-4.845c0-2.672 2.173-4.844 4.844-4.844 0.415 0 0.824 0.052 1.206 0.155 0.007 0.006 0.019 0.006 0.026 0.013 0.091 0.039 0.188 0.066 0.286 0.078 1.933 0.635 3.327 2.457 3.327 4.598z"></path>
</symbol>

<symbol id="icon-digital-marketing" viewBox="0 0 48 48">
<title>Digital Marketing</title>
<path d="M14.21 19.587c-0.174-0.174-0.416-0.275-0.663-0.275s-0.488 0.1-0.663 0.275c-0.174 0.174-0.275 0.416-0.275 0.663s0.1 0.488 0.275 0.663c0.174 0.174 0.416 0.275 0.663 0.275s0.488-0.1 0.663-0.275c0.174-0.174 0.275-0.416 0.275-0.663s-0.1-0.488-0.275-0.663z"></path>
<path d="M45.187 0h-37.312c-1.551 0-2.813 1.262-2.813 2.813v15.562c0 1.551 1.262 2.813 2.813 2.813h1.688c0.518 0 0.938-0.42 0.938-0.938s-0.42-0.938-0.938-0.938h-1.688c-0.517 0-0.938-0.421-0.938-0.938v-15.562c0-0.517 0.421-0.938 0.938-0.938h37.312c0.517 0 0.938 0.421 0.938 0.938v15.562c0 0.517-0.421 0.938-0.938 0.938h-6.271c-0.249 0-0.487 0.099-0.663 0.275l-3.087 3.087-3.087-3.087c-0.176-0.176-0.414-0.275-0.663-0.275h-7.311c-0.069-0.177-0.147-0.352-0.235-0.523-0.671-1.304-1.814-2.257-3.217-2.684l-1.355-0.412c-0.477-0.145-0.985 0.109-1.154 0.578l-2.13 5.886c-0.591 1.633-1.756 2.989-3.281 3.819l-1.999 1.089c-0.491-0.596-1.235-0.977-2.067-0.977h-5.991c-1.476 0-2.677 1.201-2.677 2.677v16.558c-0 1.476 1.201 2.677 2.677 2.677h5.991c0.933 0 1.756-0.48 2.235-1.206l0.957 0.375c1.406 0.552 2.886 0.831 4.397 0.831h12.649c1.898 0 3.442-1.544 3.442-3.442 0-0.628-0.17-1.217-0.465-1.725 1.396-0.439 2.412-1.745 2.412-3.284 0-0.644-0.178-1.247-0.488-1.763 1.337-0.473 2.297-1.749 2.297-3.246 0-1.559-1.042-2.879-2.466-3.3 0.29-0.504 0.456-1.087 0.456-1.709 0-1.898-1.544-3.442-3.442-3.442h-7.518l1.051-3.121c0.197-0.584 0.29-1.183 0.283-1.78h6.56l3.475 3.475c0.183 0.183 0.423 0.275 0.663 0.275s0.48-0.092 0.663-0.275l3.475-3.476h5.882c1.551 0 2.813-1.262 2.813-2.813v-15.562c0-1.551-1.262-2.813-2.813-2.813zM9.469 45.323c-0 0.442-0.36 0.802-0.802 0.802h-5.991c-0.442 0-0.802-0.36-0.802-0.802v-16.558c0-0.442 0.36-0.802 0.802-0.802h2.058v11.543c0 0.518 0.42 0.938 0.938 0.938s0.938-0.42 0.938-0.938v-11.543h2.058c0.35 0 0.648 0.226 0.757 0.54 0.008 0.045 0.019 0.090 0.034 0.135 0.007 0.042 0.011 0.084 0.011 0.127v16.558zM30.652 27.963v0c0.864 0 1.567 0.703 1.567 1.567s-0.703 1.567-1.567 1.567h-5.086c-0.518 0-0.938 0.42-0.938 0.937s0.42 0.938 0.938 0.938l7.096 0c0.864 0 1.567 0.703 1.567 1.567s-0.703 1.567-1.567 1.567h-7.096c-0.518 0-0.938 0.42-0.938 0.938s0.42 0.938 0.938 0.938h5.286c0.864 0 1.567 0.703 1.567 1.567s-0.703 1.567-1.567 1.567h-5.286c-0.518 0-0.938 0.42-0.938 0.938s0.42 0.938 0.938 0.938h3.339c0.864 0 1.567 0.703 1.567 1.567s-0.703 1.567-1.567 1.567h-12.65c-1.276 0-2.525-0.236-3.712-0.702l-1.2-0.47v-16.084l2.286-1.245c1.928-1.050 3.4-2.764 4.147-4.828l1.827-5.050 0.504 0.153c0.914 0.278 1.658 0.899 2.096 1.748s0.51 1.816 0.205 2.721l-1.468 4.358c-0.096 0.286-0.049 0.601 0.127 0.846s0.459 0.391 0.761 0.391h8.823z"></path>
<path d="M43.706 9.091c-0.178-0.546-0.641-0.936-1.209-1.019l-1.658-0.24-0.742-1.502c-0.254-0.515-0.769-0.834-1.343-0.834 0 0-0 0-0 0-0.574 0-1.089 0.32-1.343 0.835l-0.741 1.503-1.658 0.241c-0.568 0.083-1.031 0.473-1.209 1.020s-0.032 1.134 0.379 1.535l1.2 1.169-0.283 1.652c-0.097 0.566 0.131 1.127 0.596 1.465 0.262 0.191 0.569 0.287 0.879 0.287 0.238 0 0.478-0.057 0.699-0.174l1.483-0.78 1.483 0.779c0.508 0.267 1.113 0.223 1.577-0.114s0.693-0.899 0.595-1.465l-0.284-1.651 1.2-1.17c0.411-0.401 0.556-0.989 0.378-1.535zM40.677 10.593c-0.353 0.344-0.514 0.84-0.43 1.326l0.188 1.093-0.982-0.516c-0.437-0.229-0.957-0.229-1.393 0.001l-0.982 0.517 0.187-1.093c0.083-0.486-0.078-0.982-0.431-1.326l-0.795-0.774 1.098-0.16c0.488-0.071 0.909-0.377 1.127-0.819l0.491-0.995 0.491 0.995c0.218 0.442 0.64 0.748 1.128 0.819l1.098 0.159-0.794 0.775z"></path>
<path d="M31.78 9.091c-0.178-0.546-0.641-0.936-1.209-1.019l-1.658-0.24-0.742-1.502c-0.254-0.515-0.769-0.834-1.343-0.834-0 0-0 0-0 0-0.574 0-1.089 0.32-1.343 0.835l-0.741 1.503-1.658 0.241c-0.568 0.083-1.031 0.473-1.209 1.020s-0.032 1.134 0.379 1.535l1.2 1.169-0.283 1.652c-0.097 0.566 0.132 1.127 0.596 1.465 0.262 0.191 0.569 0.287 0.879 0.287 0.238 0 0.477-0.057 0.699-0.174l1.483-0.78 1.484 0.779c0.508 0.267 1.113 0.223 1.577-0.114s0.693-0.899 0.595-1.465l-0.284-1.651 1.2-1.17c0.411-0.401 0.556-0.989 0.378-1.535zM28.751 10.593c-0.353 0.344-0.514 0.84-0.43 1.326l0.188 1.093-0.982-0.516c-0.437-0.229-0.958-0.229-1.394 0l-0.982 0.517 0.187-1.093c0.083-0.486-0.078-0.982-0.431-1.326l-0.795-0.774 1.098-0.16c0.488-0.071 0.909-0.377 1.128-0.82l0.491-0.995 0.491 0.995c0.218 0.442 0.64 0.748 1.128 0.819l1.098 0.159-0.794 0.775z"></path>
<path d="M19.854 9.091c-0.178-0.546-0.641-0.936-1.209-1.019l-1.658-0.24-0.742-1.502c-0.254-0.515-0.769-0.834-1.343-0.834-0 0-0 0-0 0-0.574 0-1.089 0.32-1.343 0.835l-0.741 1.503-1.658 0.241c-0.568 0.083-1.031 0.474-1.209 1.020s-0.032 1.134 0.379 1.535l1.2 1.169-0.283 1.652c-0.097 0.566 0.132 1.127 0.596 1.465 0.262 0.191 0.569 0.287 0.879 0.287 0.238 0 0.477-0.057 0.699-0.174l1.483-0.78 1.483 0.779c0.508 0.267 1.113 0.223 1.577-0.114s0.693-0.899 0.595-1.465l-0.284-1.651 1.2-1.17c0.411-0.401 0.556-0.989 0.378-1.535zM16.825 10.593c-0.353 0.344-0.514 0.84-0.43 1.326l0.188 1.093-0.982-0.516c-0.437-0.229-0.958-0.229-1.394 0l-0.982 0.517 0.187-1.094c0.083-0.486-0.078-0.981-0.431-1.325l-0.795-0.774 1.098-0.16c0.488-0.071 0.909-0.377 1.128-0.82l0.491-0.995 0.491 0.995c0.218 0.442 0.64 0.748 1.128 0.819l1.098 0.159-0.794 0.775z"></path>
<path d="M5.672 41.94c-0.518 0-0.938 0.42-0.938 0.938v0.015c0 0.518 0.42 0.938 0.938 0.938s0.937-0.42 0.937-0.938v-0.015c0-0.518-0.42-0.938-0.938-0.938z"></path>
</symbol>

<symbol id="icon-check" viewBox="0 0 48 48">
<title>check</title>
<path d="M43.96 20.119c-1.071 0-1.939 0.868-1.939 1.939v1.953c-0.003 5.094-1.989 9.882-5.594 13.482-3.602 3.597-8.388 5.578-13.478 5.578-0.004 0-0.008 0-0.011 0-10.516-0.006-19.067-8.566-19.061-19.082 0.003-5.094 1.989-9.882 5.594-13.482 3.602-3.597 8.388-5.578 13.478-5.578 0.004 0 0.008 0 0.011 0 2.688 0.002 5.296 0.557 7.751 1.651 0.978 0.436 2.124-0.004 2.56-0.982s-0.004-2.124-0.982-2.56c-2.955-1.317-6.093-1.985-9.327-1.987-0.005 0-0.009 0-0.014 0-6.125 0-11.884 2.384-16.218 6.712-4.337 4.332-6.728 10.094-6.731 16.224s2.38 11.894 6.712 16.232 10.094 6.727 16.224 6.731c0.005 0 0.009 0 0.014 0 6.125 0 11.884-2.384 16.218-6.713 4.337-4.332 6.727-10.094 6.731-16.225v-1.954c0-1.071-0.868-1.939-1.939-1.939z"></path>
<path d="M47.432 3.732c-0.757-0.757-1.985-0.757-2.742 0l-21.741 21.74-4.932-4.932c-0.757-0.757-1.985-0.757-2.742 0s-0.757 1.985 0 2.742l6.303 6.303c0.379 0.379 0.875 0.568 1.371 0.568s0.992-0.189 1.371-0.568l23.111-23.112c0.757-0.757 0.757-1.985 0-2.742z"></path>
</symbol>

<symbol id="icon-visit-site" viewBox="0 0 48 48">
<title>visit-site</title>
<path d="M33.375 13.493h-18.75v-1.875h18.75v1.875zM12.75 11.618h-1.875v1.875h1.875v-1.875zM48 24c0 13.255-10.745 24-24 24s-24-10.745-24-24 10.745-24 24-24 24 10.745 24 24zM25.875 28.493h3.75l-5.438-6-6.188 6h4.125v3.375c0 3.188-1.688 7.875-7.5 7.875 9 0 11.25-2.625 11.25-8.063v-3.188zM39 9.743h-30v24.375h11.25v-1.875h-9.375v-16.875h26.25v16.875h-9.375v1.875h11.25v-24.375z"></path>
</symbol>

<symbol id="icon-all-projects" viewBox="0 0 40 40">
	<title>all-projects</title>
	<path d="M8.666 0h-6.5c-1.198 0-2.166 0.969-2.166 2.167v6.499c0 1.196 0.968 2.166 2.166 2.166h6.5c1.198 0 2.166-0.97 2.166-2.166v-6.499c0-1.197-0.968-2.167-2.166-2.167v0z"></path>
	<path d="M23.25 0h-6.5c-1.198 0-2.166 0.969-2.166 2.167v6.499c0 1.196 0.968 2.166 2.166 2.166h6.5c1.198 0 2.166-0.97 2.166-2.166v-6.499c0-1.197-0.968-2.167-2.166-2.167v0z"></path>
	<path d="M8.666 14.582h-6.5c-1.198 0-2.166 0.969-2.166 2.168v6.5c0 1.196 0.968 2.167 2.166 2.167h6.5c1.198 0 2.166-0.971 2.166-2.167v-6.5c0-1.196-0.968-2.168-2.166-2.168v0z"></path>
	<path d="M23.25 14.582h-6.5c-1.198 0-2.166 0.969-2.166 2.167v6.5c0 1.196 0.968 2.167 2.166 2.167h6.5c1.198 0 2.166-0.971 2.166-2.167v-6.5c0-1.195-0.968-2.167-2.166-2.167v0z"></path>
	<path d="M37.833 0h-6.5c-1.198 0-2.166 0.969-2.166 2.167v6.499c0 1.196 0.968 2.166 2.166 2.166h6.5c1.198 0 2.166-0.97 2.166-2.166v-6.499c0-1.197-0.968-2.167-2.166-2.167v0z"></path>
	<path d="M37.833 14.582h-6.5c-1.198 0-2.166 0.969-2.166 2.167v6.5c0 1.196 0.968 2.167 2.166 2.167h6.5c1.198 0 2.166-0.971 2.166-2.167v-6.5c0-1.195-0.968-2.167-2.166-2.167v0z"></path>
	<path d="M8.666 29.166h-6.5c-1.198 0-2.166 0.968-2.166 2.167v6.499c0 1.196 0.968 2.167 2.166 2.167h6.5c1.198 0 2.166-0.971 2.166-2.167v-6.499c0-1.197-0.968-2.167-2.166-2.167v0z"></path>
	<path d="M23.25 29.166h-6.5c-1.198 0-2.166 0.969-2.166 2.167v6.499c0 1.196 0.968 2.167 2.166 2.167h6.5c1.198 0 2.166-0.971 2.166-2.167v-6.499c0-1.197-0.968-2.167-2.166-2.167v0z"></path>
	<path d="M37.833 29.166h-6.5c-1.198 0-2.166 0.969-2.166 2.167v6.499c0 1.196 0.968 2.167 2.166 2.167h6.5c1.198 0 2.166-0.971 2.166-2.167v-6.499c0-1.197-0.968-2.167-2.166-2.167v0z"></path>
</symbol>


</defs>
</svg>