<?xml version="1.0" encoding="iso-8859-1"?>
<!-- Generator: Adobe Illustrator 22.0.1, SVG Export Plug-In . SVG Version: 6.00 Build 0)  -->
<svg version="1.1" xmlns="http://www.w3.org/2000/svg" xmlns:xlink="http://www.w3.org/1999/xlink" x="0px" y="0px"
	 viewBox="0 0 512 511.478" style="enable-background:new 0 0 512 511.478;" xml:space="preserve">
<g id="map">
	<path d="M325.838,98.002c0.773-4.076,4.728-6.756,8.804-5.973c4.086,0.783,6.766,4.728,5.983,8.804
		c-5.102,26.401,10.551,52.034,35.528,60.134c33.78,11.017,68.938-14.317,68.938-50.145c0-49.373-62.015-71.457-93.353-33.55
		c-2.65,3.202-7.399,3.654-10.601,1.004c-3.202-2.65-3.654-7.399-1.004-10.601c12.93-15.641,31.974-24.616,52.253-24.616
		c37.365,0,67.763,30.398,67.763,67.763c0,37.374-30.4,67.763-67.763,67.763C349.866,178.585,317.782,139.669,325.838,98.002z
		 M512,168.496v335.413c0,4.156-3.363,7.529-7.529,7.529l-458.18,0.04c-25.519,0-46.29-20.771-46.29-46.3
		c0-301.721-0.007-296.771,0.01-296.873c-0.01-0.02-0.01-0.03,0-0.05c0-24.716,20.108-44.824,44.824-44.824H69.18
		c8.925,0,16.183,7.258,16.183,16.173v21.363h208.64C256.545,87.95,309.599,1.144,390.809,0.011
		c84.278-1.165,137.409,87.954,99.928,160.955h13.733C508.637,160.966,512,164.34,512,168.496z M322.946,176.025
		c14.679,15.503,22.743,14.618,30.378,28.129l36.984,65.324c0.592,1.054,1.556,1.215,2.078,1.215s1.486-0.161,2.078-1.215
		l36.984-65.324c3.052-5.401,7.469-10.069,12.78-13.513c51.622-33.538,58.35-105.506,15.169-148.095
		c-59.885-59.084-161.25-16.503-162.441,66.548C296.588,134.396,306.031,158.144,322.946,176.025z M15.07,432.28
		c7.961-7.077,18.422-11.344,29.766-11.344H69.18c1.749,0,1.124,18.286,1.124-281.333c0-2.135-2.39-0.66-25.469-1.114
		c-16.443,0-29.766,13.376-29.766,29.766C15.117,170.539,15.093,231.362,15.07,432.28z M496.942,176.025h-15.54
		c-17.863,24.231-30.776,24.799-36.853,35.548l-36.984,65.324c-3.132,5.542-8.814,8.854-15.179,8.854
		c-6.375,0-12.047-3.313-15.189-8.854l-36.974-65.324c-6.066-10.728-19.013-11.325-36.893-35.548H85.363v243.797
		c0,8.915-7.258,16.173-16.183,16.173H44.836c-40.783,0-38.851,60.425,1.456,60.425l450.65-0.04V176.025z M377.823,316.124h11.807
		c4.159,0,7.529-3.37,7.529-7.529c0-4.159-3.37-7.529-7.529-7.529h-11.807c-4.159,0-7.529,3.37-7.529,7.529
		C370.294,312.754,373.664,316.124,377.823,316.124z M416.229,366.311h-96.602c-4.159,0-7.529,3.37-7.529,7.529
		c0,4.159,3.37,7.529,7.529,7.529h96.602c14.393,0,26.102,11.708,26.102,26.101c0,14.393-11.709,26.102-26.102,26.102H166.774
		c-4.158,0-7.529,3.37-7.529,7.529s3.371,7.529,7.529,7.529h249.454c22.696,0,41.161-18.465,41.161-41.161
		C457.389,384.776,438.925,366.311,416.229,366.311z M208.936,381.369h80.574c4.159,0,7.529-3.37,7.529-7.529
		c0-4.159-3.37-7.529-7.529-7.529h-80.574c-22.418,0-40.656-18.238-40.656-40.656v-39.647c0-22.418,18.238-40.656,40.656-40.656
		c18.707,0,37.644,13.708,37.644,39.91c0,17.017,13.848,30.862,30.869,30.862h70.256c4.159,0,7.529-3.37,7.529-7.529
		c0-4.159-3.37-7.529-7.529-7.529h-70.256c-8.718,0-15.81-7.09-15.81-15.803c0-35.703-27.153-54.969-52.703-54.969
		c-30.721,0-55.714,24.993-55.714,55.714v39.647C153.223,356.376,178.216,381.369,208.936,381.369z"/>
</g>
<g id="Layer_1">
</g>
</svg>
