<?xml version="1.0" encoding="iso-8859-1"?>
<!-- Generator: Adobe Illustrator 22.0.1, SVG Export Plug-In . SVG Version: 6.00 Build 0)  -->
<svg version="1.1" xmlns="http://www.w3.org/2000/svg" xmlns:xlink="http://www.w3.org/1999/xlink" x="0px" y="0px"
	 viewBox="0 0 512 323.522" style="enable-background:new 0 0 512 323.522;" xml:space="preserve">
<g id="megaphone">
	<path d="M192.333,133.743l8.632,11.918l-80.555,58.345l-8.632-11.918L192.333,133.743z M407.28,241.297
		c2.412,7.334,1.803,15.227-1.725,22.19c-3.546,6.884-9.531,11.994-16.881,14.436c-2.969,0.952-5.977,1.423-9.011,1.423
		c-4.58,0-9.149-1.106-13.217-3.195c-5.24-2.652-9.462-6.767-12.238-11.843l-112.901-0.003
		c-1.679,25.555-18.798,47.983-43.698,56.083c-6.443,2.096-13.063,3.133-19.645,3.133c-9.877,0-19.681-2.337-28.731-6.958
		c-15.073-7.698-26.253-20.813-31.483-36.923c-1.628-5.039-2.6-10.174-2.939-15.338l-40.801-0.001
		c-0.088,4.347-1.147,8.633-3.165,12.587c-3.551,6.928-9.552,12.05-16.904,14.436c-2.962,0.942-5.983,1.416-9.019,1.416
		c-4.611,0-9.042-1.067-13.174-3.164c-6.904-3.548-12.021-9.539-14.438-16.886L1.418,223.676
		c-2.381-7.465-1.746-15.345,1.779-22.221c3.474-6.828,9.457-11.95,16.837-14.408c7.65-2.434,15.455-1.735,22.28,1.782
		c3.94,1.999,7.3,4.828,9.907,8.267L279.042,32.601c-0.72-5.748,0.293-11.551,2.993-16.777c3.479-6.884,9.487-12.022,16.891-14.403
		c7.193-2.365,15.232-1.772,22.154,1.728c6.992,3.61,12.109,9.62,14.467,16.96L407.28,241.297z M58.643,259.329l-15.938-49.13
		c-1.189-3.617-3.703-6.552-7.089-8.272c-2.071-1.067-4.25-1.597-6.518-1.597c-1.513,0-3.031,0.24-4.511,0.709
		c-3.589,1.195-6.564,3.732-8.287,7.109c-1.751,3.41-2.053,7.314-0.87,11.016l15.872,48.955c1.191,3.62,3.733,6.594,7.148,8.353
		c2.017,1.024,4.206,1.551,6.479,1.551c1.52,0,3.038-0.24,4.518-0.709c3.586-1.165,6.548-3.699,8.307-7.127
		C59.458,266.848,59.768,262.995,58.643,259.329z M226.548,264.304l-96.994-0.002c0.313,3.632,1.042,7.247,2.194,10.804
		c4.014,12.37,12.601,22.443,24.177,28.352c11.579,5.918,24.77,6.955,37.135,2.936C211.872,300.273,224.897,283.515,226.548,264.304
		z M282.877,249.591L229.931,86.396L58.37,210.81l12.583,38.777L282.877,249.591z M348.897,249.594L283.368,47.644l-40.913,29.669
		l55.893,172.279L348.897,249.594z M393.286,245.861l-71.747-221.24c-1.162-3.628-3.702-6.595-7.155-8.374
		c-2.018-1.022-4.214-1.554-6.472-1.554c-1.503,0-2.998,0.243-4.439,0.714c-3.674,1.181-6.621,3.702-8.341,7.107
		c-1.766,3.425-2.075,7.291-0.901,10.949l25.269,77.872l46.514,143.34c1.178,3.677,3.702,6.639,7.112,8.364
		c2.072,1.063,4.25,1.59,6.531,1.59c0,0,0,0,0.003,0c1.506,0,3.003-0.233,4.442-0.696c3.607-1.195,6.6-3.745,8.351-7.142
		C394.176,253.387,394.483,249.485,393.286,245.861z M405.038,127.512l74.478-24.129l-4.535-13.998l-74.478,24.129L405.038,127.512z
		 M400.827,155.544l74.84,22.943l4.312-14.067l-74.84-22.943L400.827,155.544z M392.398,102.171l47.173-62.552l-11.744-8.857
		l-47.173,62.552L392.398,102.171z M433.306,82.598c2.411-0.786,3.768-3.41,2.964-5.862c-0.776-2.453-3.387-3.763-5.839-2.995
		c-2.455,0.824-3.786,3.436-2.998,5.888C428.24,82.035,430.869,83.397,433.306,82.598z M465.764,49.906
		c5.701-1.866,8.842-7.977,6.986-13.686c-1.859-5.688-7.99-8.817-13.673-6.948c-5.699,1.825-8.817,7.944-6.981,13.652
		C453.945,48.627,460.073,51.772,465.764,49.906z M380.186,30.871c3.246-1.052,5.059-4.564,3.999-7.841
		c-1.052-3.249-4.559-5.013-7.823-3.96c-3.264,1.06-5.025,4.547-3.965,7.803C373.448,30.106,376.953,31.927,380.186,30.871z
		 M497.495,180.692c-2.46,0.817-3.794,3.428-3.003,5.867c0.817,2.427,3.433,3.779,5.875,2.962c2.427-0.765,3.776-3.377,2.977-5.834
		C502.564,181.235,499.948,179.876,497.495,180.692z M511.324,127.781c-2.386-7.363-10.245-11.372-17.603-8.993
		c-7.311,2.388-11.333,10.243-8.934,17.562c2.353,7.363,10.245,11.379,17.554,8.986C509.676,142.94,513.682,135.091,511.324,127.781
		z M439.242,189.363c-6.533,2.158-10.099,9.124-7.997,15.652c2.156,6.52,9.126,10.089,15.647,7.982
		c6.531-2.107,10.099-9.111,7.982-15.652C452.752,190.825,445.771,187.256,439.242,189.363z"/>
</g>
<g id="Layer_1">
</g>
</svg>
