<?xml version="1.0" encoding="iso-8859-1"?>
<!-- Generator: Adobe Illustrator 22.0.1, SVG Export Plug-In . SVG Version: 6.00 Build 0)  -->
<svg version="1.1" xmlns="http://www.w3.org/2000/svg" xmlns:xlink="http://www.w3.org/1999/xlink" x="0px" y="0px"
	 viewBox="0 0 455.302 512" style="enable-background:new 0 0 455.302 512;" xml:space="preserve">
<g id="phone">
	<path d="M195.514,52.727c-50.676,19.355-47.546,18.122-48.085,18.392c-0.01,0-0.01,0.01-0.02,0.01
		c-31.545,13.356-47.149,49.54-34.83,81.806l23.121,60.574c1.627,4.26,6.602,6.151,10.647,4.046
		c3.435-1.788,4.984-5.866,3.604-9.485l-23.12-60.577c-8.238-21.578-0.293-46.441,20.294-59.122
		c1.976-1.186-0.898-3.944,45.318,115.589l25.248,66.151c45.518,120.792,45.676,116.599,43.477,117.023
		c-22.187,4.209-45.807-7.693-54.544-30.578l-44.989-117.87c-1.627-4.262-6.606-6.152-10.651-4.044l-0.003,0.002
		c-3.432,1.789-4.98,5.866-3.6,9.483l44.982,117.872c9.794,25.645,34.195,41.239,59.824,41.239c15.688,0,20.854-3.501,68.735-21.749
		c12.329-4.71,18.534-18.565,13.834-30.904l-33.996-89.059c-4.71-12.339-18.575-18.544-30.904-13.834l-34.362,13.112
		c-2.411,0.926-5.117-0.295-6.042-2.706l-19.999-52.388c-0.926-2.411,0.295-5.127,2.706-6.042l34.423-13.143
		c12.198-4.662,18.534-18.375,13.794-30.812l-34.047-89.202C221.631,54.196,207.849,48.012,195.514,52.727z M240.17,275.35
		l35.125-13.397c4.476-1.709,9.501,0.539,11.21,5.015c35.41,93.376,34.556,89.116,34.556,92.152c0,3.499-2.126,6.795-5.585,8.118
		l-35.125,13.397c-2.004,0.763-4.242-0.234-5.005-2.238l-37.414-98.042C237.17,278.361,238.177,276.113,240.17,275.35z
		 M207.547,67.161c6.019,2.688,2.685,2.438,38.564,93.983c1.719,4.499-0.565,9.433-4.974,11.118l-35.176,13.428
		c-1.994,0.763-4.242-0.244-5.005-2.238l-37.424-98.042c-0.763-1.994,0.244-4.242,2.238-5.005
		C200.507,67.989,201.863,64.634,207.547,67.161z M235.043,7.636c0-4.428,3.755-7.913,8.172-7.618
		c55.53,3.706,107.068,27.272,146.539,67.297c32.923,33.381,54.262,75.016,62.143,120.187c0.818,4.684-2.763,8.982-7.517,8.982
		c0.429,0.167-6.403,0.11-7.53-6.35c-7.355-42.133-27.26-80.972-57.96-112.108c-36.812-37.337-84.893-59.312-136.687-62.78
		C238.182,14.977,235.043,11.667,235.043,7.636z M447.595,213.776c-0.001,0-0.002,0-0.003,0
		C447.559,213.761,447.556,213.759,447.595,213.776z M217.75,7.829L217.75,7.829L217.75,7.829L217.75,7.829z M160.968,444.862
		c-5.585-1.709-11.617,0.193-15.014,4.73c-15.238,20.375-35.441,36.204-60.037,47.057c-17.985,7.935-37.882,13.072-59.132,15.269
		c-15.11,1.52-21.488-18.654-8.311-26.092c26.418-14.872,50.221-38.075,67.046-65.327c3.662-5.941,2.431-13.468-2.919-17.903
		C-19.255,318.308-29.382,164.318,66.019,67.639c39.014-39.546,89.406-63.107,143.469-67.423c4.449-0.355,8.262,3.149,8.262,7.612
		c0,3.995-3.083,7.286-7.065,7.605c-50.397,4.031-97.403,26.021-133.803,62.917c-89.317,90.507-79.296,234.075,15.442,312.496
		c11.108,9.186,13.763,25.38,6.185,37.658c-17.039,27.598-40.771,51.381-67.27,67.524c32.196-4.272,74.096-17.619,102.497-55.582
		c7.243-9.664,19.979-13.763,31.697-10.172c138.299,42.36,278.253-64.083,274.537-208.69c-0.11-4.283,3.338-7.807,7.621-7.809
		c0.457,0.219,7.541,3.595,7.637,7.473C459.086,376.421,309.137,490.205,160.968,444.862z"/>
</g>
<g id="Layer_1">
</g>
</svg>
