<?xml version="1.0" encoding="iso-8859-1"?>
<!-- Generator: Adobe Illustrator 22.0.1, SVG Export Plug-In . SVG Version: 6.00 Build 0)  -->
<svg version="1.1" xmlns="http://www.w3.org/2000/svg" xmlns:xlink="http://www.w3.org/1999/xlink" x="0px" y="0px"
	 viewBox="0 0 512 512" style="enable-background:new 0 0 512 512;" xml:space="preserve">
<g id="visit-site">
	<path d="M258.55,237.731L320.419,306H288h-14v14v54.4c0,22.969-2.494,41.303-7.623,56.051
		c-5.301,15.24-13.631,27.203-25.467,36.573c-11.295,8.942-25.937,15.768-44.577,20.758c4.357-4.413,8.417-9.189,12.167-14.317
		C227.248,447.83,238,412.889,238,377.6V320v-14h-14h-35.852L258.55,237.731 M259.2,217.6L153.6,320H224v57.6
		C224,432,195.2,512,96,512c153.6,0,192-44.8,192-137.6V320h64L259.2,217.6L259.2,217.6z M500,12v392H332v-8h148
		c6.627,0,12-5.373,12-12V96c0-6.627-5.373-12-12-12H32c-6.627,0-12,5.373-12,12v288c0,6.627,5.373,12,12,12h148v8H12V12H500 M96,76
		h320c6.627,0,12-5.373,12-12V32c0-6.627-5.373-12-12-12H96c-6.627,0-12,5.373-12,12v32C84,70.627,89.373,76,96,76 M32,76h32
		c6.627,0,12-5.373,12-12V32c0-6.627-5.373-12-12-12H32c-6.627,0-12,5.373-12,12v32C20,70.627,25.373,76,32,76 M512,0H0v416h192v-32
		H32V96h448v288H320v32h192V0L512,0z M96,64V32h320v32H96L96,64z M32,64V32h32v32H32L32,64z"/>
</g>
<g id="Layer_1">
</g>
</svg>
