<?xml version="1.0" encoding="iso-8859-1"?>
<!-- Generator: Adobe Illustrator 22.0.1, SVG Export Plug-In . SVG Version: 6.00 Build 0)  -->
<svg version="1.1" xmlns="http://www.w3.org/2000/svg" xmlns:xlink="http://www.w3.org/1999/xlink" x="0px" y="0px"
	 viewBox="0 0 512 511.666" style="enable-background:new 0 0 512 511.666;" xml:space="preserve">
<g id="website">
	<path d="M256-0.334c-141.158,0-256,114.842-256,256s114.842,256,256,256s256-114.842,256-256S397.158-0.334,256-0.334z
		 M138.917,246.994h355.26c0.104,2.88,0.174,5.768,0.174,8.672c0,131.429-106.922,238.351-238.351,238.351
		c-42.527,0-82.48-11.207-117.083-30.804V246.994z M492.925,229.648H138.917v-36.794c0-27.535,22.398-49.933,49.931-49.933H465.95
		C480.153,169.263,489.535,198.567,492.925,229.648z M17.649,255.666C17.649,124.237,124.571,17.315,256,17.315
		c83.462,0,157.028,43.128,199.619,108.259H188.847c-37.099,0-67.275,30.18-67.275,67.28v36.794h-0.003v222.736
		C58.868,409.401,17.649,337.262,17.649,255.666z M156.261,190.62c0,16.734,13.617,30.356,30.356,30.356
		c16.739,0,30.356-13.622,30.356-30.356c0-16.734-13.617-30.356-30.356-30.356C169.877,160.264,156.261,173.886,156.261,190.62z
		 M199.626,190.62c0,7.173-5.836,13.009-13.009,13.009s-13.009-5.836-13.009-13.009s5.836-13.009,13.009-13.009
		S199.626,183.447,199.626,190.62z M256,220.976c16.739,0,30.356-13.622,30.356-30.356c0-16.734-13.616-30.356-30.356-30.356
		s-30.356,13.622-30.356,30.356C225.644,207.354,239.261,220.976,256,220.976z M256,177.611c7.173,0,13.009,5.836,13.009,13.009
		c0,7.173-5.836,13.009-13.009,13.009s-13.009-5.836-13.009-13.009S248.827,177.611,256,177.611z M325.383,221.123
		c16.821,0,30.503-13.683,30.503-30.503c-0.003-16.821-13.683-30.503-30.503-30.503c-16.82,0-30.503,13.683-30.503,30.503
		S308.563,221.123,325.383,221.123z M325.383,177.758c7.089,0,12.862,5.768,12.862,12.862c0,7.094-5.773,12.862-12.862,12.862
		c-7.089,0-12.862-5.768-12.862-12.862C312.522,183.526,318.294,177.758,325.383,177.758z M339.941,443.927
		c1.692,1.695,3.91,2.541,6.131,2.541s4.441-0.846,6.131-2.541c3.387-3.387,3.387-8.875,0-12.262l-52.375-52.375
		c7.858-10.234,12.544-23.025,12.544-36.896c0-33.476-27.23-60.709-60.709-60.709c-33.476,0-60.709,27.233-60.709,60.709
		s27.233,60.709,60.709,60.709c13.363,0,25.723-4.349,35.761-11.693L339.941,443.927z M208.298,342.394
		c0-23.912,19.453-43.365,43.365-43.365s43.365,19.453,43.365,43.365s-19.453,43.365-43.365,43.365S208.298,366.306,208.298,342.394
		z"/>
</g>
<g id="Layer_1">
</g>
</svg>
